<mxfile host="app.diagrams.net" modified="2022-07-12T05:55:19.461Z" agent="5.0 (X11)" etag="MwQy9jfm8PowjzeIpm-P" version="20.0.4" type="github">
  <diagram id="FKl7FGVFUuyN-hkxFa0M" name="Page-1">
    <mxGraphModel dx="1422" dy="757" grid="1" gridSize="10" guides="1" tooltips="1" connect="1" arrows="1" fold="1" page="1" pageScale="1" pageWidth="1100" pageHeight="850" math="0" shadow="0">
      <root>
        <mxCell id="0" />
        <mxCell id="1" parent="0" />
        <mxCell id="Ri0zrD2mn_9D7OCaceJ3-1" value="" style="shape=image;verticalLabelPosition=bottom;labelBackgroundColor=default;verticalAlign=top;aspect=fixed;imageAspect=0;image=data:image/png,iVBORw0KGgoAAAANSUhEUgAAA4MAAAJyCAIAAADxTIKlAAAACXBIWXMAAAp1AAAKdQFKJd39AAAgAElEQVR4nOzdZ3wUVRcH4DOzsyUbICEhtNBCEelFQJAOSm8CIkWqBUVFEBAERFBAwIYK2CgB6UWBF8FKB6UoXVCQAEqHJJC6uzNz3w9D1pDs3hmySXYT/s8Hf5K5c+6dOXMndze7cwSXy0VERMQYUxRFkiTiun37dqFChTgNFEURRVEQBG8NGGOyLJvNZk4QxpiqqiaTiT+YlJSUoKAgfhD+YBRFISJOR4wxxhgRiaLIGcnt27ftdjvn7CmKIggCP4jL5ZIkiX/qkCOPQZAjb22QI4+DQY48BkGOvLVBjjwOBjnyGAQ58tbGW44k9xAZY4IgmEwmTmdEJIoi56i0BPCDaG34QRhjoijqXlX8wWiXlG4Q/mDI2AWhdcSJI6TjrQ1jTPeqQo48Qo48NkCOvDVAjjxCjjw2QI68NUCOPEKOPDbg5CjjmeIPV5ePu99rEH5Lbat2gjht+EG03Y0Mid9R+iH5CDnKADnyMQhylPu732sQ5Cj3d7/XIMhR7u9+r0GQo9zf3UgQ3podAAAAACDnYCUKAAAAAP6BlSgAAAAA+AdWogAAAADgH1iJAgAAAIB/YCUKAAAAAP6BlSgAAAAA+AdWogAAAADgH1iJAgAAAIB/SPHx8e5/KIqiW+cqOTmZ38BIEN027sJQ/DgOh8PpdHrbqqoq6dV+za42ycnJ/INSVVW3NkO2nDpCjrxAjrxBjrwNxvcgyJFHyFGOtkGOvEGOvA3G9yC+5EgKDQ11N1IUhV9NVePexSNZlnXrk8qybDabOUFUVWWMGTl9drud05FWRpYzGEVRiIjTkZEgGrvdbrFYOB3pFqJ1uVy6NWSRo6wF0SBHHiFH3iBHHiFHHiFH3iBHHiFHbvjrPAAAAAD4B1aiAAAAAOAfWIkCAAAAgH9gJQoAAAAA/oGVKAAAAAD4B1aiAAAAAOAfWIkCAAAAgH9gJQoAAAAA/pFxJcoY8yWcj7vfaxB+S20r/+my2kP/OQ203Y0MSfcxtgbj5HQQ5IgPOfK4FTny7xiQo9zf/V6DIEe5v/u9BkGOcn93I0EkWZbd7bTiAXyqqrp38UiWZcaYbokq3WRrj+P3ZTBaxS2tZBZnJPwu3JedbnUv/kEpiqJbdMHIaUGOPI4EOfI2GOTI42CQI48jQY68DQY58jgY5MjjSJAjb4PxliPJXXlJ26xbLEsQBN3SovyqUO42nAbapeDjYERRZHqFaLVx6l4xuuVftapc/AHrVu7SPS3IEX8wyFEGyJG3BoQceR8McpQBcuStASFH3geDHGXAydFdFUt1z52RNkIaznBJ731pbavuYHRfMRjpi9/AHcHHAeueFiODMTISI22QI28NkKMs98VvgBzxx4kceYujGwE58hYBOcoMOcpam5zOEb6xBAAAAAD+gZUoAAAAAPgHVqIAAAAA4B9YiQIAAACAf2AlCgAAAAD+gZUoAAAAAPgHVqIAAAAA4B9YiQIAAACAf0gZKi8ZKTCqW7nVSAPdjnxvo9WV0h0McY/I+Gh14wiC4OOpS9+XL22QI28NkKPMkKMsd4Qc8fvid8TvxWAb5MhbA+QoM+Qoyx35mCMpfbFRRVF0AymK4mN9UsaYkfqkRo5KlmXdGrL8IAbb8AvRUlrZVk4b7ZD5lbu0+rD8jpAjb22QI49tkCNvbZAjj22QI49tkCNvbZAjj22QI49tvK5EzWazu5EgCJIk8UdsMpncu3gkCAK/PqnWET+I9tJEt1iq2WzmxGGMqarKr+6lJZLTkZEgWgRJkjiD0SLwryoikiRJ99QhR1kIQsiRd8iRt8EgR5khR94gR94Ggxxlhhylh8+JAgAAAIB/YCUKAAAAAP6BlSgAAAAA+AdWogAAAADgH1iJAgAAAIB/YCUKAAAAAP6BlSgAAAAA+AdWogAAAADgHxlXorrP4ufzcfd7DcJvqW018tB/TgNtdyND4neUfkg+Qo4yQI58DIIc5f7u9xoEOcr93e81CHKU+7vfaxDkKPd3NxJE0kpXUbpCTLqpcu/ikVZdwEgtLN1edPPEH4x2LLoVqCitfhdnq5EI/MFoQfhnRrfoLXLE2YoceesFOcoAOeJsRY689YIcZYAccbYiR9568XhmJHdollaiihOIDLwg0L0gjJwX3fObPlqWh0pp15PuaPkduUPxB6MbxMipQ444QZCjDJAjTgPkyFsQ5CgD5IjTADnyFgQ5yoCTI8ldA1TbrFu2VRRFfhvGmG59UqZXH1YQBN02uoNx50D31Qk/iPa6hB9EFEXdM6NbQ1ZVVd1Txx+tezDIkceRIEdZGAxyxImDHHmEHHnsCDnyFgc58uj+yRG+sQQAAAAA/oGVKAAAAAD4B1aiAAAAAOAfWIkCAAAAgH9gJQoAAAAA/oGVKAAAAAD4B1aiAAAAAOAfWIkCAAAAgH9I/h4AQEBwuVy7du0SBIH/OGJZlnUf8Ks9bZjfXWJiYoECBTgNFEXhPxuZMaYoiiTxprD2tGHdAhsOh8NqtfKD8M+MVneE05GRIESUmJhos9k4B6WqauPGjTmjBXC7dOnSyZMnMY88dhQ497qCBQvWrVuXHwTyN6xEAYiI4uLiWrduHR4ervv7BvxFVdWbN29euXKlWLFi/h4L5AHffPPNyJEjQ0ND/T0Q8ColJaVu3brbt2/390DAn6Tk5GTt/7SXhvzXQETkcDjcu2RmJIjWxuVycRoYqRxFRCkpKZytWpFT/gtiRVFIr3KX9vKRv0BxOByiKMqyzOlISOOtjZHXoMiRx8H4niNtnCdPnoyIiOAEAT+6fv160aJFU1JSkpKSMI/SC5x5RIF0r3M6nY0aNdqxYwcnAvjXvHnzVqxYkZycjHmUuaMAmUe5cK+T7HZ7+kD8P1IQkdPpdO/ikZFTI8uy2WzmBNEuCN2riog4gzFSQ9bgVaVbQ9bpdNpsNovFwulI99J0uVySJPn4hyRCjrzg5ygoKIizLwSOoKCg4OBgTgPMI4/uw3udxWLRLSAOfieKot1uxzzK3FGAzCPK+Xsd/hAJAAAAAP6BlSgAAAAA+AdWogAAAADgH1iJAgAAAIB/YCUKAAAAAP6BlSgAAAAA+AdWogAAAADgH1iJAgAAAIB/SIwx7f+0x7FqtQE4O2hPyeds1Z7pqhtBN4iROr9aM/5W/ni03X0MQgYOyn1i+c+G5UQg5MiHIKR3UPwzD4FDdwpgHnnri+6/ex1nXwgcuhcD5hEnCL+XPHGvk1RVNT4gTYZdvI2Jv5UfxEgbSjs2fhBBEPhtSO+IjLTR6HZkJFW6RUGQo6y10XhrY2RfCAQGb3mYR5nb0H12r9PdFwIE5pG3IIEwj4wE8TFHUvr1qaqqJpNJd8ScpbGWQiNrZ34QI3G0lpw2Rmq/arKlDb8v7ZBFUeScXq0B/6pCjnxpw+nLSHwIBCaTiT8FMI847qt7HSZ1XoF5lFngzKNcuNf9V7FUeylA3LeC3eH4DXSDGGyg24afA1EUtdW3L4PR8qebbN2jdm/y5fQiRx5lS45QnzpvwTzKsDVA5hEF2L0O8grMI29dBMI8yul7HV4yAgAAAIB/YCUKAAAAAP6BlSgAAAAA+AdWogAAAADgH1iJAgAAAIB/YCUKAAAAAP6BlSgAAAAA+AdWogAAAADgH5KiKO5/aP+v+7z+9LtkwBjTDaKVe+IHIWOVshRF4cThV5h1R9DtRYuje1rcx+6tI+2puZw42mnhd4QcceL4kiMjvUAgUFVVlmXMowxDDZB5RIF0r0MJ37yCfzFgHnGC5I97Hd4TBQAAAAD/kEwmk/Z/jDGTySRJEn8HURTdu3hjMpn4a2etL04E7XWAkY44bbTXE7pFt7Q4nNGSgcpdWgP+gAW9grZafVj+qUOOPI6WfM6R7oFAgBBFkT8FMI/4cTijpfx1r0Pd+bwC88ijAJlHmhzNESYqAAAAAPgHVqIAAAAA4B9YiQIAAACAf2AlCgAAAAD+gZUoAOQH586dGzFiRHx8vL8HAgAA9wArUQDI286dO9evX7+oqKjQ0NDQ0FB/DwcAAO4BVqIAkFedO3eub9++UVFRK1eutNvtI0aM8PeI4D7HEv9YNeGJxrVr169f54Ey5R/u897umzrPSge432ElCgB5z7lz5/r06RMVFbV69WoistlsY8aMwRui4F+pR97v1HzsX+3m7zl84MChP3aMDf/+jclrrmApCsAjpa9tpf0/v9qV9vxSb1sFQeA3MNKL9vRU3TikV5vLXVdKN46RjvgPmNU9qO3bt2tPqeW0URRF9+myiqJIksQfcGJiYoECBbxtFQRBlmUjHXHaaInWPS1ElJqaarPZvG3VDoT/BODsapOYmBgUFOTtoLLj84Xqlf+NfWLYJ/sjJ6574fz0KV8fiw9rMuKLzzv/OeH5mZuPx4Y0Hv7FsrcejRCIyHV6+YjnZ+xMCAtjNxNL9flw/uvNwu8evHxoTq/+b2y81HnBykprXp2364JQqeeMpZOKRD8/ZvEv59Xy3d9Z/uWQKlYiInb7t89eGTHvYJKkOgs1GTXng8E1gkm99N2UV2b/ptqS/j4jdf5oxVuti7jOrBk7av7fZmvsn+fDB325bFSDAp72tR79fMCgN1b/Ue+jzZ1+GTtr88n40IYvzFs6rV1xkYhYwsE5zz07/X+n1XLNerUP3xO9yfzqjj2v10j2EOezAYMmrb3QcfnG6ouemvLztfD2H/6w9tlKPpYQuHDhwvDhw1evXq1de1p9OVVVH3rooW3bthHmUQ634c8jSnt+dSDc606fPs3vIpup/y4d9/aBWjP+HFwlmIhIKtfrzc/CLG2KC0Ts1m+fjxr9+e8pdinVEdFm/Mdvd69gub55Qu+XP94pPrfyPcvn46J//YdV6Pb2ki+fqxFERElH548cv/a6Vbx06toDo75a0P/2nB7PTP32z7Jv/nZwUvUbm8Y9+fKcnZdbLbq8cWDIVcN3HpIvbJo0bNKGfwSTiyo8OWPeG48Vv7l5/JMvf7Kn2KQfXj336rBFf6jVhq/eOrNVoVw6bUlJSdu3b+e3wTzyKDg4uF69epxeKK+s6+R0HA6HrCc2NpbfIDU11eVycRq4XK7U1FR+EKfTaWQwt2/f5nekG8ThcOi2cTqd/COSZTk2NpZzUPgWRV5x7do15pvY6E42e6kOM/bHK65La54qZS5aofOUX+MV1+V1A8pYqo4/6GKMMfXSl+1Carzxu5Mx56FJNYMemnpCzhzL9euYSuaw2i+uPu9QEw691TCoQGT955bHpKqJR6Y1toc8vvSGyhhjt7Y8W7ZYlwUxTsYSd4+qElR1/H4nc/z8Qpmq4/Y7GXMde+uhqJe2OVn8qieKNH7/b4WxlG0vV6o75ajsZV/G5L9mNbSGVOz1ydEE1XV18/OVLFEjdjkZY8x16M2atsovbLpw48+FPYqHdfliz5Zv9sWqXuIoZ95rFFS2Vp93DsT+9W7jkPrTjrh8OLfXrl0jolKlSpHeXR5A07RpUx+uuHujXl/UyW5+aNofmeeyGve/waXDO3x+1skYS/p9SoNCNScecDDGWOqmQeHmiEZjt1x2qUknPng0pEC7Ly+pjCnn57QM77LkhspY/JrekY/N+0dhzHXojRq22lOOah2kbBxQ2NYpOlZljBm988h/ftA0tNboXfEqky/M71A4/PGvrqiMsdRvB0eEVG4xcuWFm/8bXCryqa9vqrlz0ubOnRsWFubvyySvql+/vu7iJE+s60Q37c6urcE5iIizVXd3d0f8BhojoXS3GumL00A7J0ZOC6cj7ZDPnj2rKIrqnZZITgNFURwOBz+IqqqxsbH8IE6nkx9Eu/L4QVwul9Pp5I9EVdWEhAR+R9r1zWnjdDr5HRkJoqqq9mrB29YrV65ky63BarOSUr37kHoholSiU49mQbdKth5YP0SUinfs0dx+9vjJZCIiocTTX5/+cVQNM5FUtnxpOn/2vOI5mBjSsk+3MhahQI2enas65do9epSzCsHVenSu7jh5/KxCRMlbl6691Wrgk+XMRMH1O7Qo/PcPP51RyOlMvXFs/+lEkqq+suXAey3MTHU6HRcP7T/vINsjU/ZuHV/D5G1fEmxBNhIf7jukRgFBKvporzZFrxw/foMRqVf37jpdtM2TbUqHP9Cze8OUXbtjW3ZrUDjFSxyyWK3K5dBGfesWrvTyd//uHV9Tp+qcAQcOHFi4cGHJkiXNZnP69ejZs2e1VGIeeZQ780hVVS1IINzrPvnkEzEXC34q/5495xSLlyyWucukrcu+iW/Rv3eUmYjstQb0rfXXsuX7XUQkWG0WsWzngY8VlwR7lSe7P6ScOPKXTESyw5ly9uDvV2UK6Tjn8NdDS4lEgsVq/u+KF61Wy3//MnTnUf5au+xg+Z6DGoUIZIps26F24tbvfnUQkWCxSkkJlTt0Kx3W7pOTZ5Y8HpZ7r/SqV6+OeZSZ7jyaP38+6a3Z8sq6Tkp/K3ePiUOLxdmqqiq/TfpxewtCRIwx3bc9+HFEAzVkxbS1pi9BKO20eGuT/mrgBNE9M4QcZTUIGctRthBsRSIKCUREoj04SAwJ1f4h2IODhBtOJyMSSL68b9V787dfkgqHiGePu9QIlRG7Or/TAy/97CAiU9mXvj/+XkMiEosULSISEQlBwXZTof9i2QWX08WI1Mt/n01KiXmjVcNZAhG5blmKFVFSmKXlyLcadxpRt2J092HjJo7sHkFCaNdxry96fED1SvP6vDJ+wrB2RbztSyQQkVi4WBGzdkS2IBs5nS525zRZrFYiIslqEV1Op+p1DHfihD9YpbhIZPX+V9R7O72CMHjw4MGDB0dHR0+YMOH69esul0uSpAkTJixfvpwwj7y3oZyfR+4GAXKv4++ezRhR2sdF7qZeOXs+tcjDpYK0f4olypSSLv8dk0xNQoiIxIhiEdqB2oJs5HI6GZEY1X/SsJW9OzywudWgVyeOe6apgf717zxKzJlzzrOLBjbeJBERS74ZEV7amUpkIyKSKlWrbCYSgwv4/nrxHmEeeWvAmQLuxV8+uNfl+hUHkP/p3Q6VP957vNO8B6J/XdazpCl+SZeVh4mIhCK9vvy9RTIjIsEcGmk2FosYIzGix5zdc1qa7/p5taHrjrfe8tk7b7/Xt8G6EZv3zGxWsOHrP57stO7j6dOmd667fvr2n0cFe9lXJSISKHPXQrHmj9UYv+XXC3LDyCP7j1uajGhg5YxBpTurZp1jyJJBgwYNGjQoOjp6/Pjxly9fXrFixfTp08uVK5cTfQHoMpWKKmNWzsX8o1CE779ZhYg27+499cSyD6ZOH9tqzXdf7P1mcFSGJizTJ+70l96MmeuO3vjTCyU9TG57cBA+8wL+gO/OA+S6pEO/HlUf7tKxpIlITbidcOerdaZCJStUrFixYsWKFcoW8fqp+gzEkpUq2G/88cdV9a4fs2u/fHfAUaHDqAW7f5/f5vLyVfud8oWt35+w1nhi0ooD+2bVOrLsm1Oq5315TFVfnDUk4ZPeHTs//tY/vZZ9MbiU6HUMuWLQoEGXLl1atGhRyZIlJ0+enPsDANAI4a06NLKc2bzppCvdT1VVJbFExaig6xf+Sb7zo8sX/pWLl4+y86Kl/Pndz+fCGwycsfHQ1teK/bR0y2WVyGwxU0pyirYATb5xPfEev5VvKl+5Avvr+Cnnve0GkLOwEgXIRiw1JZUpTqea7iepqf/9w5HqYES2yNIR6l+HjyeTfGXbkp+u2BSH08OvFJaakspcTtddu6cP7GBEZG89uG/kLx9P/uZcKlHqP99PeXnOCUW9uGbi0x/8FMuIRIvNYi4RWZydWDDq5c9/SSIik9VqtpaILGLyuC8RkSPVwRwOB6XvOpUREbu29v1vyw8b//LQl17s37iwI1Ehb2NIi+Nypf/FnDMGDRp08eLFFi1a4NuB4Ddi2UFTR1Y//d7AV1YcvekicsX98c34Lq9sSKLgVgOeCN+xZMVZFxGlHFu64nD53r3rm4lIdaQ6mdPx39Lwzj3Cufejoa8tO+EiIslilQqWKFlIJFNk1SoFz/206XAiU+MPfL7ykEROp7arsTuP6YFeg5omrpo2+0CcQkr8kYXDJm5MpLRh5MZMBfDkvy/3qarLpf/F1ri4OH4Dl8ulqryv3Wmf+eUHURRFlj18mTiDpKQkfkfap4Y5bbTvbfkYhDEWFxfncDi8bb19+zYRxcTE8INon4PmDwY5yloQppejq1evkq/fnXcdX/h0k9JWQbBHtRqz4V+FOb5/tphoiWwy8ut/FOb48fkSojmy8Yh15xX5woZXW0aFFylVrcPkn3/7sKm1UPUhK84q6Q/q+g9TulQvLAqmIrV7fnzQxZSY2U0tYkjVzrP3u5hy4ZMWFjGkSucP9jkYY0nHFw9rWbFISFhEqeodJ2y+qDCm/LN+ZMuadZq1a9+6SevBn/52W2XOU4uHPFLjoVYd2rds2v7l5adSGPO4b8ovH/SoG2ESxEIPdpi6LV5lzr2jK5qk4g8PXXZaZqmHZjYtnPYKVpBKdIuOUTzHcR39ol/dCJMghlRpO2DGT75/GVf77vyVK1f4zTCPPMqdeaR1pCgKpwHLrRzNmTOnefPmukGylXJ979yhrasUC7ZagkJK1mj/6qo/UxljTE04PP+5lnXqPtK0UZ2H2gxffjKZMSVmzYjWFYIFwVyy0XNLTslMvbmog1Uo8ED7d3YmJB78qFe9mg8/2qFts6Zdx2+6oKXOdWb5cw1KBBcoEtXgqXk/ftTWaol8ZOjSk0eN3nkYUy7/NLVH7ZKhoUWKl280+PPDiUy9tmXioxWCBcES2bDn8MWeHuORc+bOndusWTPMI48d8efRggUL6tevnz/udQJL+6SJ1k6SdD7fEh8fz398tCzLJpOJ88FVxpgsy2az2VsDSntQqO4D55KTk+12r3/hYGkPGOMMRvt0OacjI0GIKD4+3m63WywWj1sTEhIKFSoUExPD/xCb9sUL/qlDjrIWhPRydO3atWLFil27di0iIoIT5D6n/D2/e7cNLRfOf75eMRtLvbxzUseOu/sd3T2qQm78deX69etFixa9cuVKsWLFOM0wjzzKnXmkdaT7jaXcydHcuXPXrFmj+6xK8KN58+atWrVKe962tzaYRx4tXLjws88+27dvXz641+Gv8wBgELu5be22yK796hWzCUSirUTDRg/aFJeMEjIAAJBFWIkCgEFCoXJRhU8f/P22tvR0nV+3cn/FLh0q+Fg1CQAA7l94ihMAGGVrNXnh4BcnPdb03bCCkpLKij82d91r2fC0egAAuF/hdwgAGCYWaz1xbeuJ/h4GAADkF1L6h54oimLkA7/8BrpBtM/z+t6GiBwOR9ozLDwHYYzxPzivqiqlVU3gtOFXFyCi5ORkzoEnJiYSUUJCAv8RM4qi6H7MGTny1sbHHN26dYuzLwSO27dvW7UiT15gHnmUO/OIDJ//XMhRSkoKy/Twdwg0iqLwb7+YR5wI8fHx+eBeJ6X/Hpn2HSv+1FUUhfPVM0EQtO9YcSIQkSzLnC9zCYLg/vYZP44oijab1yeA5+ZVpShKUFCQt4PSvm1nt9uDg4M5p5d/WtyhkCOPbXzMEeeMQUDBPMoscOaRFkT7Der3HFksltwu+An3ThRF3dsv5lFmFotFFMXg4GBOL5RH7nWS+yECWgJ07w4mk4nz3AGtP91v+wuCkC1PZJBlmTOY3Hwig8lkkiTJ22C0n5tMJv5RC4Kg+2QT5ChrQUgvR/yDhcAhSRLmUeaOAmQekbGnOOVOjnTPKgQCbY5gHmXuiD+PtBmke+ryxL0O350HAAAAAP/AShQAAAAA/AMrUQAAAADwD6xEAQAAAMA/sBIFAAAAAP/AShQAAAAA/AMrUQAAAADwD6xEAQAAAMA/JO0xrUTEGNOepMrfQVVV9y4eaVv5T0DVDaI9AZU/Et3BaEG0B67yR8uhjVa3eIPWxls07edGjpqfAuSIM9psyREEPkVRMI88BgmEeURpT+TmH1Tu5EgrhwOBT/diwDzyGIEMnLo8ca+7q8qFblUAbSj8NloQThtBELRaWPwgum3c0fib+FeDtpUfRLsudQfDOXvaz3WD6BYm4feSPg5y5C0UP0cQ+HSnAOaRt450g/g+jyjt/AdCjjCp8wrMI49xdBvojla3F3co/97rJPdhuF8K+HIH0SLwj9zdhtNAG7TuKda9nWVLDVndAVNanry1cV+7urnkN0COsjxgMpYjCHyYR95CBcI8cgcJhBxBXoF55C0IZwoIBt7hyiv3uow/0l078/m4+70G0T25lHb8nDb8INruRoZk5E8DuXx+AmEMeS5HEPgwjzxuDah5lG9yBIEP8yhHg+TCGPBqEgAAAAD8AytRAAAAAPAPrEQBAAAAwD+wEgUAAAAA/8BKFAAAAAD8AytRAAAAAPAPrEQBAAAAwD8kfw8AIIDs3bs3NDTU36MAz+Lj4/09BMhj4uPjd+zY4e9RgFenT5/29xDA/ySXy+X+h6Iouo9aVRQl/S6ZybLML/qkFULl96IVBtCtGuxyuTiDMVILQWvD70g7HP5zWRVFkWXZWxttkLIs6546fsVbQo68t/ExR4qiFClS5Nlnn+VEyEa6ic5NgTMY3YdCFylSRFVVzKMMAmceUVohbP5gcidHVqv14sWLTzzxBD9IdsmdeaQoislk0h0JBcyD/XVPS8OGDV0uF+ZR5gb8eaRNEP6pozxyr5Mk6b+3RQVB0L3ETSZT+l28teGPWOuYP2JVVXUHI0kSJ46qqlrlLn6ytQFzRqJb54qIRFHkDEb7OX+0Wl+SJOkWgUCOMo/E9xwVL1788uXLukFcLpdujoz8qrh161ZISAingSzLujmSZdlsNnOCGMxRcnKy3W73tjW7cqSqqu7pjY+PDw4O5hyUoii6QTCPPMqdeUTG6s7nTo6efvrpgQMH5qd5FB0dvWjRou3bt+fCPAqoewCxVdUAACAASURBVB1hHnmKIAhC/rjX/XcMxl9F6R627qsBI/WydNvoxhFFUfeliZBWuVW3FyNVwry1cf/cx46QI34vvuQouzpCjvi9IEeZB4McZYYceTRhwoTLly/v2LGjZcuW/JHw4yBHHuWteeRukA9yhG8sAQAABLro6Oi4uDhJkiZOnOjvsQBkJ6xEAQAAAt348eNTU1NlWT548OD27dv9PRyAbIOVKAAAQECLjo6OjY3V/l9RlAkTJvh3PADZCCtRAACAgDZu3DiHw6H9v6IoeFsU8hOsRAEAAAJXdHS09jBdk8lksViISJbl8ePH+3tcANkDK1EAAIDANXbsWKfTabVay5QpU7hwYSKSJOmXX37B26KQP2AlCgAAEKCio6OvXbvWqFGj77777tVXX33wwQfPnj3bu3dvIpo0aZK/RweQDbASBQAACFDbt2/ftm3bnj17WrRoof2kXLlyixcvjomJKV++PN4WhXxAcpeBYmn4O+i2MdjA9zaUVhHBx47c/9VtluU46U8yP0i2nBbkKGtxtOfuIkdZ64iQoyx1hBxxGiBHRLRo0aIMP9T+v2zZspk3ceJkaIAcZbkjCox5ZGQkeSVHkrtUKGNMq3OqO2J+dVGtqCj/of9aqTF+L7oFZHUHowVh3KK3Biulkl4tWq0vb9G0nyuKwu9OO/+6pw45yhzE9xxpHWkVKTlBkCOPkCNOBOTIYxvkKDPdHGkRZFlGjjK3CZAc5do80jripyCv5Oi/sqfa2eeXFqW0Yqmcnsjn+qTa+RVFUbdYKn8wWhZ1g/AHQ2kTkn+KtY74dedNJpPumeHXkEWOvPE9R5SuoBlylB5y5C0IIUeeIEceZUuOtGORJAk5ytAgcHJEuTWPjNSdzys5ynimdNfOfD7ufq9B+C21rYz7djF/Krp3NzIkfkfph+Qj5CgD5MjHIMhR7u9+r0GQo9zf/V6DIEe5v/u9BkGOcn93I0HwjSUAAAAA8A+sRAEAAADAP7ASBQAAAAD/wEoUAAAAAPwDK1EAAAAA8A+sRAEAAADAP7ASBQAAAAD/wEoUAAAAAPwDK1EAAAAA8A8pPj7e/Q9FUXTrXCUnJ/MbGAmi28ZdGIofx+FwOJ1Ob1u1Cqf8INnVJjk5mXNQiYmJRJSQkJD+bGeWLaeOkCMv+DnSgujWz0COcrQNcuQNcuRtML4HyUM5Sk1NlWU5Li4OOcogcHJksI3vOdIi3Lp1i9ML5ZEcSaGhoe5GiqLwq6lq3Lt4JMuybn1SWZbNZjMniKqqjDEjp89ut3M60srIcgajKAoRcToyEkRjt9stFovHTVr8ggUL8k+dy+XSrSGLHGUtiIaTIzJWLBg58gg58tYRcuQRcuSRbo5sNpskSYULF0aOMgicHOXaPLLb7SaTKSQkJB/kCH+dBwAAAAD/wEoUAAAAAPwDK1EAAAAA8A+sRAEAAADAP7ASBQAAAAD/wEoUAAAAAPwDK1EAAAAA8A+sRAEAAADAPzKuRBljvoTzcfd7DcJvqW3lP11We+g/p4G2u5Eh6T7G1mCcnA6CHPEhRx63Ikf+HQNylPu732sQ5Cj3d7/XIMhR7u9uJIgky7K7nVY8gE9VVfcuHsmyzBjTLSOmm2ztcfy+DEaruKWVzOKMhN+F+7LTre7FOShtkFobThAjpwU58jgS33OkdaRbGAM58jYSfhfIEWcwyJHHwSBHHhtoxWyQo8yDCZAc5do80o6XP568kiPJXXlJ26xbLEsQBN3SovyqUO42nAbapeDjYERRZHqFaLVx6l4xuiV6tapc3gaj/dzgqeM3IOTI+2B8yVH6NpwGyJG3CIQcZWkwyJG3BoQceQoiCAK/CCchR1kdTN6aR1oX+SNHd13QuufOSBshDWe4pPe+tLZVdzC6r+qM9MVv4I7gy4DdW3VHojta5IgTwccB654WI4MxMhIjbZAjbw2Qoyz3xW+AHPHHGQg5cjdAjjyOMxBylGvzyL0pH+QI31gCAAAAAP/AShQAAAAA/AMrUQAAAADwD6xEAQAAAMA/sBIFAAAAAP/AShQAAAAA/AMrUQAAAADwD6xEAQAAAMA/pAyVl4wUGNWt3GqkgW5HvrfR6krpDoa4R2R8tJw47p/7eOqMBMmWju7DHGmbBEFAjjJAjrLcEXLE74vfEb8Xg23yWY7SN/MlDnLkUd6aRwavlmxpk9M5ktIXG9Vq2vIDKYriY31SxpiR+qRGjkqWZd0asvwgBtvwC9FSWtlWb220QfJHS2kFbfkdIUfe2viYI0orm8sv44Yc+dIGOfLYBjny1gY5ytyAMcY//4QccfvKN/PI4MWQJ3Ikmc1mdyNBECRJ4o/YZDK5d/FIEAR+fVKtI34Q7RTrFks1m82cOIwxVVX51b20ycbpyEgQLYIkSekHEx0dLQjCwIEDtXESkbtBdHT0uXPnJk+enDkOv6AwcpTlIOQpRxloEfh3Z0KOPEGOOB0hRx4hR5np5kjb3Ww2I0cZBE6Ocm0eaSeNfzHklRzhc6I5pVu3bi+99FLJkiUXL17s/mF0dHRkZOTgwYMHDRrkv6EBAAAABASsRHNKaGjoiBEjrly58vzzz1eqVImIGjZsOGzYsEuXLvXr169cuXL+HiAAAACAn2ElmoNGjRpls9lSU1OvXr1qsViuXr2akpJCRFOnTvX30AAAAAD8DyvRHBQaGjpmzBir1UpETqeTiCRJeuqpp/CGKAAAAABhJZrTRo4cmf4Tx7Isv/32234cDwAAAEDgwEo0Z2lvi9psNiKyWCx4QxQAAADADSvRHOd+W9TpdOINUQAAAAA3rERzXGho6OjRo4kIb4gCAAAApJdxJar7LH4+H3e/1yD8ltpWIw/95zTQdjcyJE5HI0eODAkJmTJlSi6fn5zY/V6D5JUcZRiSj5CjDJAjH4MgR7m/+70GQY5yf/d7DYIc5f7uRoJIWukqSleISTdV7l080qoLGKmF5W1r9F8J33zxEREl2cOPfT6ZPxgjufSm7vTVtk2zUzuN+H18rywHMTKSGkMnNx404pU5S3WPyEfZeER8NYZODk6+OXz48BuC/cnSvPoN/AtGu950q4RRWo01zlYjEfiD0YLwr94MhYnHjRu3aNEifr8e+XjpZq/AGUwOjWTIkCHvvPNO+l4C5F7n7kX3qPP3PMosW3K0aNGicePGcXbPXrkwj1wul6IoxYoV8/tIjNMdTKNGjdavX4955DEIZx6xtLrzOT2PKOfvdZI7NEsrUcUJRAZeEOheELrnpVOYY2H1x6Kioibaz6c8uoY/Hl+Ehoa+FrVoVpEL8WtysBciCgoK+tRRnogmWs/mjyNyuVxT/imw9qo4r55J9wWT7jzh765d3LpXFL8jdyj+YHSDZLi8ExISGjduPGLECH6/4EezZ89OSEhIn9bAudeRgTVZ+mhZHioF9jzy1sDHHCUnJ0dGRs6ePZsfBPxow4YNv//+O+aRt3HqjjYX5hHl/L1OctcA1Tbrlm0VRZHfhjGmW5+UcevDboq1Wg9sHPjo6zFUt3cZXhlTH00+nvrDo7bJx+2TW9hyrhciWnnBNTRYJKKYpND8cUSL/rxt/fqdnq2rrrmo8o+If8EwYyV6Sa/Or/bakR9EFEXdq1e3FrOqqukvb0EQIiMjW7RowRs6+NWaNWvo7usncO51RCQIgm4b3cHk9XnkcTD80boHw6/SHhoaiukZyP7444/ff/8d88gj/jzSusiFeUQ5f68LxG8sdQpzbP1sRq0gR44u2ohocnWb+785qncZc6NwU6NwU745Ii1HNawpOX1EAAAAkI8F4koUAAAAAO4HWIkCAAAAgH9gJQoAAAAA/oGVKAAAAAD4B1aiAAAAAOAfWIkCAAAAgH9gJQoAAAAA/oGVKAAAAAD4B1aiAAAAAOAfUnJysvZ/jDFFUfgFnYjI4XC4d8nMSBCtjcvl8taAEx8CSkpKim6yUlJSOFu1QrT8wmiKopBedTWtJC6/wKDD4RBFUZZlTkdCGm9tZFlOf3nLsmw2o8pUoJNlOf2FGjj3OnexZt1yfPl7HnkcjO85cjqdRgqRg3+pqpqcnIx5lLkj/jxyOp0GT13g3+sku92ePpAkSZzhEpHT6XTv4pGRWwz/9zc/PgSOoKAgI8nitDFS59fgzNet8+t0Om02m8Vi4XSke/twuVySJLk70p0vEAgkSUp/EQbOvY7Sfvnp/galfD2PPA7G9xxZLBbdAuLgd6Io2u12zKPMHfHnkcViMXLq8sS9Dn+dBwAAAAD/wEoUAAAAAPwjEFeim2KtrYaOPZpiXXnB62cOwL+0HB1LtSFHAAAAkGWBuBLtGiE7GnRdc0XoXQbfBQlQWo7WXhWRIwAAAMiyQFyJbrguWQ9s7Fmc4f22gIUcAQAAgO8CcSXaKcyx9bMZtYIceL8tYGk5qmFNQY4AAAAgywJxJQoAAAAA9wOsRAHyCPn3eX0fLmmRyry8PYsfiWA31vQtVarvmhvZ97Rv5dSS55qWDRLtT65zZFtQAAC4b0juEhTa41i12gCcHbSn5HO2as901Y3ACaKqqt6wISBoD6r1pY22lX/NaLv7GISMXXjaxc9/fm9Wq7Yk7pw1aNSHG3+7XrzJk63Km4k5Lv767Z6qn139pm9BQwGkusOWrmOXK83MUvdERIK16AO1alFRq+7Tvl17xrRf323Lu431PnxhenDAF99ZY4sOyfKgckf6rAXOvU4LopV14Q7/vptH2ZUjzr4QOHQvBsyjLIyE8s69Tsqw7DPyi1Z3pag7IG1MnAb8+BAg+Hk00ka7GARB0L0e+B0ZaaPR7cjIdHLPam3wup0SEVGBZq+tXl/gsfKjCjw3L/qpECJSTr7TfJzDyYiM1oERzBaLLzVjCjaf/G1z3VbOmwfnTv3qXJVuBqNKFotIig/DymkeL8JAuNcZbEP5fR5xmvmSI/wqySs8JvrcuXNvv/32gAEDmjVrhnnE6SWn55GRID7e68T0BEEwmUwiV8Z97qbVg+JH0GWkYBcEAiPZ5F8Pvl8txkMRkW4bk8mkOwUydHovJ0ywWNMvJE2VB3w4tkUB5ejnfesWlWwd5m6d91T9cmEFQss/+vp3V9KmK7u5a0aPmiVCCher/OjYH2+YBCIi9dLGcR2qFjYF91y4e07vuqXDQyIqtx236Z8768GUU8tHtHuodoPGD9ep03pY9LEkImLXN7/eqkIB0dZh4Q2mxqx88ZFSVmvDaZuXvtC0YkTBgqUeGbb6rExEyt8Ln3tq5s7r/yzuW+PBmk+vvnnXzYfF/vrxwGb1G7Vq+XDthk/O2pW21cTOrxzWtGJEwZAyjV9Y+XfaxweSDn06sHH1Wo1aNK1bo2G/eb8nEpHMPV6WcPCTPnVKFChQrHqHl8f0rxtR+OF3jspE6vUdM3o1qFbjodpVa7Ydte6s817Oe6a8B869zuD1lr/nkbeR+JgjUe8dMggQGbJ24cKF/v37V6xY8fTp0y1bttS9VO7PeaT99jEyksC/1/33nqqqqi6Xi+mJi4vjN3C5XNp7sN6oqup0OjkNrl69SkTXrl3THQz4y7Vr14jo8uXLui2TkpI4W1VVlWWZf8HIsizLso9BGGNxcXEOh4PfkaIo/CBOpzN9Ry+88MKwYcP4u6Qf6bX57ay2Ll/FZ+r6r1kNrSEVe31yNEF1Xd38fCVL1Ihd2iS5vfnpSFuNkT9fl9WkvxYNfLCQVPqlbU7GGHP9PrGapVj1AZ8cuaWotw/PahVauPOiiwpjKXvHVCnYaOqRZMaY4/TcNuFRz/9wmzHGWOq3g4vY2i+4rjLG1NjojjZ7ZNupe2MVJf6XCfWCijz1jdZM+WdOy6CokbszTVP1xvoBpYp1X3pJYWrsql6F7V2+imMs9es+BSxFW721+6as3DowpaE9rNfqOJUxxuQ/ptcv0Pzj8wpjyT+9UKZAm88vqvzjdR16s6at8gubLtz4c2GP4mFdvtiz5Zt9sap66avHi5YfvOGKwtQb6wdEFmj6wV+8ayKdYcOGZchR4NzrGGOKovAvb03+nkceB+N7jubMmdO8eXPdIOBHc+fObdasmftiiImJ6devHxFppdK3bdvGMI+8WLBgQf369XNhHrGcv9fhJSNA7nL9+m6Pdu3atWvXrvP4zXHaW4qCLchG4sN9h9QoIEhFH+3VpuiV48dvMCJy7tu4+cZDg19uUcQk2Cv1e6Z9uPtNVcFqs5KrTo8hNQuJQsFaQ597VN66YVsCufatWBVTt0//6kFEZKnYd2DT66uWbE0mIhIsVrPw3+42Uqr3fLZhYVEMqd+r0wNJx4+d5/+RPfHnZetvNevdtYRIQmjr11d+/1GP0DvRavR8+pEwk1ioTq+u1VJOHDmrEBGZqozdemb14NIikaVMVEnl/NmLCvd41at7d50u2ubJNqXDH+jZvWHKrt2xLbs1KExXNy39IajToPbFRBLCH+3YiB34fsdN/OkVIL84d+7cgAEDoqKi1qxZQ0SyLDdo0KBFixb+HhfkBsnfAwC4z5gbjlm34amQTD8XCxcrcuf7QbYgGzmdLkZESRf/ibOUjSqpvWY0lS1f9q7Proglypa2aP8bVLpsUWXXv1eUpPMx1yylyhS78zIzuFSZ8JSDf19RqXymF56CLaJoiODu0+V0cld3ypXzF5zhDYtbiYiE8Nptmvw3kPAIbY0saIO/Eyg1ZsfiD5buj7WFFXIcP6eoTRV3Bx6PVxAEIovVSkQkWS2iy+lUiUg5fybGefOP4U332YiIUuPCi1eWk+7hA7YAEKBSU1MHDRq0ZMkSm81GRE6nk4hMJlOVKlUmT56stTHyjZlXXnklLCws58cL2Q8rUYAAIXhaVzF213cnPXwwlf3XNAtvEt7bB1299+Bx8I49E9v33NJh8+7lLQuzv98/tv5zvV2EYs0fqzF+y68X5IaRR/YftzQZ0cB6Z5OpwtNL9rxZ8z79ELndbuds1T4Kxo+g28BIEIBsd/Xq1RMnTphMptTUVPcPFUU5derUuXPntH8y7ndDFUXZvXv34MGDsRLNo7ASBeBZv3597dq1y5UrlyPRlZgNnx+r9XyXMt4aCAUiI0Odp85fVamMSKT8e+4fhar9t129ePa8g+pKRJR0PuaaqWSpYqbgqArFnYfOX1GprEhESf9euBkUVb7YvXwSRxDI07LTVCKqrOXaX3/FsaZFDaxg1Uv79/0T3qJL48ICkZJwK8HA49lMVV+cNWT1kN4dfy5iKthr2ReDS4lEZCr3QAXx8xOnEqlm5jeT4f517Nix0qVL59T0hFxRtmzZQ4cOzZ49+91333W5XLIsE5HVaq1UqdJXX31FRIwxWZbNZq+PlEtISChUqFCWXopDQMDnRAF4ateuHRUV1a9fP/erc1/IrrueSa9e/v6z6IPxKpEj1cEcjnTPhmeO1FRGRJaHO7cPO7B47p6bCqWeXbtyd7Lg0v5ufyfizkWf/n5LZQmHPv38Z6lF55aFyPxwv74VDy//6lgKEckxK7/aGda9b0s7ERFzOV0sJSWVEWl9Kg6Hkr5PByMiEguGFTbd+PvvuIx39gKPDexVZPuHb26ISWEs+dy3b07fEM/I5XCoqsvpuisQEYnhpSNtcSeOXHCRI2bD6r1JoruR1+Nl19a+/235YeNfHvrSi/0bF3Ykap8rLdp5cJegLe9O+/mKi1ji6XWjRy+5hMcOQ5kyZWrVqtW7d+9smZ55ghyzdkTbZm26tKpWslTFByLzR1GJ0NDQKVOmXLp0afz48Xa73Ww2OxyOpUuX3j9pvc9hJXrPlDPLX3rsgUImU2jNTgMHDejdsUWrJydtuKeHyuhgVxd0677gOl7fBYJy5cr169dv+fLlUVFRAwYMOH/+fFYjJe5+v2+PabudriMLhj/zzDPPPPPMgM7tXt8mBIv7P+z15Kz9jktfDes2bfstLe+u3z4c8OLyMwoV6jhr2YTS3/aMKlKizot/thvdvcSNFS91HvPNPyoRkVSlb1fHlCalwyMfXWh5LnrugJIikaX+pK/nN97zdONGzRo/3GNV5LSvP2gfIiinlrzQ6ZXVNx27p3bv8+5X84Z0mvijI+l/r3V+beNFbVGnnF34fL95h2Wigu1eHvnQ0dcaNmj7wtKz6b7EJIS2f/+bDxseH/VQRMHCFTp9bmr48OWvhnYYtznF8d3rnUauu6AFUv9dMqzHRwfkQp0nf9zX8UHDyHKNxl7sOqlP1KVloyZs+fcXzvEKIXWaFN36WvfOnTt16vDYI1Wq9lx8TiUSivb8dP30qruGVCsaXrxa79XFunUqgZuXQezG1plP1CpsLvfKziwW5wpYISEhI0eOXLVqVVRUVN++ffPOwiVx56ye9UtYRNFSssETH/ySSvJvH7YqJYmWYvVf3cS799/eOPH55cXHfLPx+0XDH27+2tgOQfnns9LaevTixYuvv/669nGUiRMn+ntQkCvSfwk/QL7tnwee4uTc9lJpS+Vx+12MMfXG10+VtNV685D+yTNCSTy7/oVqBdvNv6bzEAi/uq+e4hQTE6NNFu3PQwMGDIiJidE23eNTnLKXfGJq3aA6bx0z+DSjvEA+82WX6p0+3H8lRWVMSbm0bUwde6P3zug8Eogvrz7FyXF44QuPlrOaijYZMmbMK0M6t+o4cuWfKXqD9ibl6z4hZYfv0BmMEYH2FKe4uDht1aI996dfv37u6RnYT3FSL85rbbW2+eKqdh6Sfx1bt9qQtef5By2ffrdhUOWx++60Sv26TwF7r7WpOT3WnJPhKU5ucXFxb775ZkhISExMjO48un37NhGdPXtWt7t88PvIDU9xylnfxppr1aolSdLqf7LxjcbsZTa7P2ErhDVrVYud3LrjX+39oNRTy19+tFb1OnWrV23Yb/Yv2h841Yvfvt6xTvWHmrVoVKt227Gb/k17jHfG54Q7tr7ZY/iKP5N2v/FIlWqtpx+U/XBwBuSFHGWbcuXK9enTx2w2u1wuIlq5cmVUVNSgQYMC4g0Ylp8+G8Vublu7LbJrv3rFbAKRaCvRsNGDNsUl56NDNM5Sa/AnHz9Xw1Li0Vemz5q9YNVblb8d0u/DE1msZSVIZlP+efMsvdDQ0NGjR9tsNu3zhWvWrNH+fBEQ05PLbDGTYAuyCkTqpfXDX4t5af1nPcpov1k8lYRgt36c8uQL0X86L339Wo9uPUasPP/fB1SU01/1fTBYNIVW7b/kb4VY7M4ZTzSoXqdJyya1azZ7ftlfee42HRoaOnny5HPnzsXHx/t7LJDz5HRSU1O1zwtz3Lx5k7PV5XLpBtHacBpcvXq1/vITj++8xV9f+5Nz98iotPdEmfLPnJbW4M7R11XGmGPf+OqFm848msyY48Q7jeyln/3uNmMscf1TRUo//2MyY8qFT1oElXtlp5N5e0644+cXSgYF+HuisbGx9ZefqL/8RLVq1fQvsvxIe6RIvXr1/PeeqOu3CdWsD965CvOHlB+fL1N+6Hfx2rXvPLe0V4UGU4/4doDDhg3z98WSRUz+c+bDQbUmaycgeU0vu7X9gstHFg5uWDTo0Q82vtujbumQwjVHb01gytWt055o3rzD413bNHvsuflHEhhjjKmxu2Z0q162fI0GzXtPffOJElHDdziZfHLZsKYlJVuPlUlMvbl9ZtcHg83VJv7mYoyxpGMLh7Zr3aXPk20bNRnw2eEkxtT4fR/1a1yvadvWjR554r29sWoeeeGjvT/avHnzQH5PNK3OhXpr75tt20/bn/DfNm8lIbRLorJ70v/3nqjzj1nNK/dYcEp719y5a2T50B4r4hhTY1c+UTi839cJGbsPENp7oj6uGWJjY4nozJkznDaa27dvc7Y6nU6Hw8GP4HA4dNs4nU4jSyn+QTkcDpfLxYnz5Zdf1q9fX7ejAFnXacfi7dThu/O+YgmHFq04UWXYqm7hApFr/4rlf9d7fUD1ICJ6oP1jFSZ/9d0RV9smwV0X/PlwYnAQERWNKmu7GnMumZqGaM8Jn9+1hEgU2vr1ld+HNg0lyguvXhljRBQRETFpwYKkpCROy9TUVO0pcR5pJWj5D4oz2EYQBH7tzaSkJJvNxnlOjbuAb+Y4ixcvXr16tfshIxaLJSQkZMaMGQcOHOD0mINY/NbpA0d8etIRf2lwj4gFq1992Kq/U+CztZq8cPCLkx5r+m5YQUlJZcUfm7vutZo+36W6du06fPjw9D9RFEXUK9aalJQUHBzsbStjTHvGISeI1oZzybG00tL8y5uIiBwpKcweFlaoZrfPp//2U/ePl/Xe9svP3w8Zm1hQuvn1K32XlFz12+xmwezayidrPzmlyuF3HxF+nT5k2o3n9p0cXUWI+aJ7g5tqXyIyPdj3o3cP/9j6LBEJYc3HzB+zvdwHREQkH5rVf9zlkUfWDygWt7R7lS+3XXym8uU3+06++drhbc+VvhHd5cH+U+ofn71x48YszyM3I+ffeI6+//77Dz74QJbv/AXJarWKojh27NiCBQtu2bKFs3sgcJ5eMKDn+0kjD9Qu8N8PTVXGbj3zNBVNKwmx9exFhUp6ngiCKKg3f379mS2PfvW/IZW1e625yazfT8abQ4moQNlyRZL3xFxTqUAg/gkUgIgk9w2FMWYymbSXkhyigbrwWpVSb1u1V0KcIN/Gml2z+i3YunX1P85eaY/tDjzqpXVjuh+4/du+f+vM2LH7xSrBRERJZ89ccR56v2ujhQIRKYlJRe3kYETs5pENH8/dfEYJKRx0+dcUVklVGe854YFu43XRNavfkp9++jm5Dj9HycnJnEchGvl1rigKcZ+GaCQIEcXHx9vtdovF62gVRdGq62besXPnztoy1Gq1hoSEzJw5c9CgQUR08OBBTo85SAhtNWHD0Qn+6TwHicVaT1zbOru/pRAZGdmqVSv3PxljiqLo3uvi4+NDQ0M5DWRZ1r3XydynzxCR9ukrz5e38pf7f1NOfbV0X+mn8RGbewAAIABJREFUlreyE7lMJtFRrkmbMpbSQ5d+TeT4du5PrOnShsFEJBRt26neMzM2HXvn4YI7d16s8eTjlS1EVK774/VHHksLZpIkd6Ut92lQzv645XTlvs2KCiSE9V71T1+LRd0/f8vl+qO6ljaRUOSRppUvrdhxRnm5adOszaP0XC6XJEn8U2c8R/3799fuEjabTRCE0aNHv/rqq6GhoXPnzuXv7n+u3959LbhFvbBvpwye1XrbhDppL9o5JSEyECzqnx/3/uAzdczvddyvm1jCqe8//2jt8ZSCYfa4/ddVm6oG9JvZPq4ZtOvE4OKE00YURSO/Skjv95EWih9ETKsIz2nDn0faJt1TFyDrOkp7jeqxTSC+J9oxzDXk8GFZlgN4GUpEYske766bkPxavTaL1v3479AqldPOpa3VtO2regala6r+u2BA27Fs+q/fPF/R6tw85Ott14mI95zwQNcxzDX48GGXyxXYOcoeH374YWpqqtVqDQ0NnTZt2pAhQ3TvUwDZRP1309Rh/9gSHGEdV259oWWhOz+2lCxVNO1XVGpcbErBB+7UyiJ7aIg59kasytS4W0LhsMJa5auC4WEW/kXL4m/Gs4IhhQQiIsliISI59kasfHLhs49vFonkeFf5CGvgfWY3Ojr60qVLVqvVZDKNHj165MiR/NcPgcVUZvCni8dE/MwadJk6aHKLPTMaFyC9khB3YwnfrzgxvEf1D2aOXNjr2+fKiUQs/n8vtRlyetiuHyfWCZb3j93x3c5cOyCALAjElWgeIhRo9ubHQzZ2mvTC3LY/vFJZouAKlUrKPx//S+5ZK92plY//ciCl5uTO5a1E5Lh9W3uco/fnhAtCHl6k5jPx8fGzZ8+OiIiYMWPGoEGDXK789hwcCGxiqU4T572Z8RMKd72xYAsvYk+Ii7/z9ZXk+FuuwqXDRKFAaCF2K/42ozCBWFJcvJOFp8UUBSbLChERS029czsSQsNDKfb6TZXC0kKLYRHh1vqvLF3Xp5C7Mwq0L5BMmjTJbrfnvTWoRowoWdwshLSd+cXz29t9MHhsq31z2hRm91QSwtL2zS/f6nDItafFG6NWdFrTr6SonPl1f1yFJzvXCCYi9fbtRDx6FwIbPjiSNS6XzBRZYSSEPjZ19lMhuyYNmXEwkcjcYMDAamcWvB19MpGR69re2S+8s8tFpsgykezs4aO3mRq3f8HmM8GCVlrX83PCxcJhoer5M9n5hFLIsvXr13/00UdXrlzR/hyfxxl8VG3SxiHtZ57K4re0IfsoskyZ/66a9nyXtH9bGnZpJ+3a8msSEbEbP205WLJd++qSqXzTpiWPbdz4t4tIubj5h6OkyNo+phJlSgknfzuSQiRf2LzliKrICpGpfLvOD/6xYsG+W4xIjd33zU/nxVrdupbes3T5aQcRsVtHtuw4H2Brmm+//XbIkCEXL16cMmVKnluGyi4XsdQUByMSQlpN+/KVyhc+f/rZJX+7OCUhyOlwqKnJKXeS7y4qEfTwuA+fLrhp9ItLzikkFi8dKV48euyGypL+WLrhiEguB36dQCBzf4UtcJ47FeDPE5XPrBzRoWqoKIjhtbqOWRujMDV+9/T2lYqUrPf8qnMKc5795rX2VYqFFi5SsnKrl1eedjDG1Ovb3upYuUhYiQdajFh/4qvHg4MqdPn0qIsx9dZvnz3dpHzh4OCQ4tU6T/n5msoYc/21qF+NYiWrNu0ybWeyvw/Xs/vqeaLpZXgOol+fJ3qvjD2qVk25tG1Cw9D675zMJ88pzbvPE1007NFyFsES9dhz45cfTxuv6+jCwQ2LimLYQ71HLfztzv1BvbFzVp9WLTv37NGheeuBcw/cUrWf7pjWpVrZ8jUbthowe8m4OtaiDw+cty+RMTV+97R2FYuXrdm47eCPFrxazVa65YjVp2WWcmrZSy0ql61QtWbtxn0+PpjIGEs8uvC5pg9WrFqrdu1Hen2w75YacM8T5WwN4OeJJux6r3ejUlZBsEQ27DP7lxTGGEs9ueTZR8pGRDWbsv3GySXPNCwVHlG2zhMf/bpjfFVLkfpjNl+9suXNbrXCRUEs9GCbp15f/WP0c03L2gQhqGzzEWvPK2r8nmntKxSv1HrarqTbBz95slbxsKLlGw5Zcux/zxazRDabvicgf5l4e55oenieqEf56XmiWIlCVmAlqgnklajj9OoRXdp07tG5cfWaXd7bl+D4cVSdMqGSWKBExcpVW0074GKJv88b8Ei1mg2bN6lT/eG+c39LYIy5DkxrWb6IVQyKiKr8YN1RP5xZM7xJaZsQ1GttKmOuQ3OfqBVukiqN+cXJGFMubpnUs23H7l1b1Kr26MSfrgfmc8fy6ko0UGElCtkIK1FOR/fPShSfEwXIl26tHz/sQPN9O18t79w+vOao72JGTHrv10XJUZ1i3tq7+ekIgUg5+d2ir81DT2x9uYzj52EPdnt9ebfvnitZb/wPXzvqNtrSd/Mv4x40EdFj3ykXiw4hIiKp9rAVqxMeqbWAiIic26cOXVtx7eF36gvH327YZf3xSa1b8L4lDgAAkAlWogD5EVOdTsfFQ/vPO8pHPTJl79aCRUxEd3/y0+gzCyWLRXTvKlhs1rSv1zmdqTeO7T+dWL9q1Ve2HLBGYBmacwLnaWgAANkL31gCyI+E0K7jXi//04DqlZo988m+BIun15ypMTsWT3n2iT6Dnxv25jfnFFX1+sxCjywtR77V+MTouhXr953643Xvz5cEAADwSmLpHhfE0gp+cHbQ/qjvbasgCPwGBnuBPEE315T24G7OVnco3b50O+I/TFv3wnNvMnIBBzyhYMPXfzzZad3H06dN71x3/fTtP4+pdVeDe3lmYXr/Hb212tB1x1tv+eydt9/r22DdiM17ZjYrwNnRrzJkLUDuddq7j5hHWeuIjJ06CHzZsma43+aR8dOi28zv9zrJfeoprawFpzNN+l08buXXXdT+BsQJYmQMEAj4edRo6c7aVo3Ba1IQBN8Ho9tdhsubMRaof8qUL2z9+Vajtk9MWtGtb4PH6i7+5tTIWg+me1StynlmoSDcdUsxW8xqbHIKkZVIvXHtRtrd+tov35+r3LbDqAVt+7Z4otb4VfvfbtYqIN8ZzZz3ALnXUdqvRt2rKH/PI29xfMyR7oFAgHBXiPXI4JrByCzIT/NIa8A/dZRH7nWSe9muHZXu3YG4FcAZY6Io8j9ppFtGPFB/tUNGujX9dNu4Xzjy2+g20K5bA8W7da5eIQ0nQvqOAvdalU8sGPXyzfcPzWkVbLJazdYSkUVM2qNqt54566QI63/PLGxV+t+7nlkoFg4vzC6eiUmmKgWJiKTK1SrT+5s2X+zTt8jF9Yu/u6q6nC4i9eKaiU/vGnp0Ra9w0WKzmEtEFtcpF+c3Ga6NwLnXue/L9/k88hiEfM5R4E5PuFu2rBnut99HRo46r9zr7qr8q3XGHy7/kLTXAfw2uodkJH8QCIx8uUE317pfktCuBx+DUNqly796dW8fuldvoJCq9h3ZdMiI5q1LF2UJVP3j2f1LCkQ1BozuuWFc97p76/WbtnLU5I/7Dh7fMPKjMi1e/XRSnw2PfTFqQttvZ7aPKNVjxDNLX3y63iN1u42PntEpouKz7725c8hLDxQZU/bh/jNef+rbvouf715s3tL+w59cN+mxFouKmxOdZd747OUqgboSpUzXT4Dc64S0v1hhHnlrw2lABnLE3x0CRLasGQyut/LNPHIv7HJhHuX0vQ7fnQfIl8yVByzYMyDDD6VKg5YeHeT+Z/8vf+n/Zdo/Tjim3fk/oWS3T/Z1++S/3UIbj/vfn+Pc/+zyxEd3/u+DrV2zd9QAAHCfwbuPAAAAAOAfgbgS3RRrbTV07NEU68oLLv3W4A9ajo6l2pAjAAAAyLJAXIl2jZAdDbquuSL0LoNHZQcoLUdrr4rIEQAAAGRZIK5EN1yXrAc29izO8H5bwEKOAAAAwHeBuBLtFObY+tmMWkEOvN8WsLQc1bCmIEcAAACQZYG4EgUAAACA+wFWogAAeQq7saZvqVJ919zIO3Uulb+WDWtRzi7an1zn8PdYACCwYCUKAJCT5MOf9W9S1i6aijXoOXDQoEGD+nWqGR7U7KNzWa1FKViLPlCr1gNFrX57cHvSxiHtZ57KUEJQvbJpQuca4RazuUCFFkPmH5fTbTM90G/et7M6BuFR8wCQkRQfH+/+h6IoJpNOmZTk5GR+A90gWn1STptbt27xu4AAcfv2bZvNxm/jcDicTqe3rYwxrZIYJ4JuGTEyVsY6OTmZf3EqiqJbryJDG4fDoXsGwO8cDkf6Gx3l9r2uXO9P1tgSKw693HXihy+WE4nYtcV9hsTfiIsPNeneD92HkH4e1RqxbBmRknZUuTqPkuIu7Zzz9tfXOr4QHx9/17BtTcYs+kxt0XJelbdXfdApKPHuc04OJxOYKyk+Pt5qcK75mKOUlBSt2iEEMkVR+L/0dedIYmIiEd2+fTvDNM8sP/0+0iLEx8fn9DwyEsTIfYzTRrLb7ek7kySJP3UVRUm/SwaCIMiyrHvYsixLktfyTpz4EFDsdrtuskRR5KzVcnPmK4oSFBTEufDcJdo4UyDDpWs24wtbeYDZbM5woeb6vc5UyC6RyRJkt9tFIirbc+q02HIFgoNFlnDo81eGzdx0xlG46uNvTq36VYexJ2s9+cbYRnunTV55xPLsd6dmN3PunvnU8+9uPVd1+pFtI8vHfvdGvxHzdl5q8tnZDf3jVox88e2lu1P6LPmy1NIxn/5ykZVq+dKH815rViRp5ztPDH13p/D0kuniFxOW/XbNVnPA+/OfT/3w+SnfHL5mqfHU+1+9/3hpExGRen3n+6+8vuyUYlZcRdtOmDO1e5Sy9/0+L8z84WqnL5ZX2fDavB1nU4u3Gv35/FcbhTp+e++FEYuPJSSf7/XIysIdZu+c2cqS7qQVKmATzAVCCwYHWxljlHj4i1denPG/047CVR8f39NsFWSr3W638n8FZFeOLBYLCn4GPlEUdX+P8C8Y7XfE/fb7yGKxiKIYHBzM6YUCZl2nHYh2UJm3ShbLnbuIlgDdu4PJZHLv4q0/k8nEyYFWeJTzKxy/3fMKSZL4FwMRybLMaeO+NDkXjKIoRMSZBkaCaBH4A1YURbdetiAIkiS5O9Kt5wuBQBTF9Hn3x72OSSKRYDJbLBaRiCiyXvNIIiLXr7MGjdlbf+mxvT2KXv3f6J5P/yq2+fT7JQNCaWh95d8HZpkki8US3OqNtZ/deKjjfpPZYrFGdpn1vXSjVI8rksUSVG3QZz9EUrmO//vo+xnLDl6KSt07sU3bgRPrnFzY6dE3N398LvLxFfOOrvj61PvS9pGNOwxtc3zI/HV/fmrePbppm5Ezu3X9oo2N2OWlL/dbGPp/9u48zqb6/wP4+yz3zoYZu+xLyL6TJftOZU/2NaJEkVB2itCvoqgQolCSNSq7vimVRJtkSUrClTEz996z/P74mGsa934+x9wx5947r+cfPTL3c96fzznv8znzuefOPe83D353f75LGwfX7De0RK3dY5pO+Gj5lUqNl768sd2HX54reuGdPvWHjn2r0xcT76o1dvs6urfxzl7b//fMPelnpe5QJJIkRXU4HETeL18cMPZg3Xe+P9i1wIXNYzsPuE6tVCdbIKadR34PXfA5Ev7uhFDA5kjwa4bs9vuIzSDhoQuRdR0RGYZhmqbfQ4ffowAAWUH/4c2B7du2bdu2bcfH3j1jEBFpx7Zu/a1UjxGdijmlqGIdRnYq6aXYuBgiIsnpdN687ktRUWn+KlRyRjmkNC85Kbph9+5lYiQlT4ORA+te3rbpCw8RSVHRTrlkhz5N8yty7oZdWhW+nrNhr+YFFDl3g25til754fifBpF5Ycs7O2M6DmhXUCYpb4v29c2vduy9ZBJJ0dFRcnzzPj1KR0vOEl2736f+ePTH23p8sHZsy5bfSj00MnXvupYx8Fk5AKQnWCkDAECmUCoOXb7tydJp3/7r58/+IRUrVZzdJVCKlymRsUuyUqxEURZDzl+8WPTVc+f+NSkfEZGcr0A+mYhIio2LVXIm5JJS/yF5PR6TyDjz6ynPpR9G3XcomkzTdLvyFiqvXb+xYpTzFczPxqvERDuNRI9+a9+B6efP/iEVL10i2L0DgIiGCwMAgJ1ufuQlEefzPO7txDR/BWbyW/qjlBm88uDkKvJ/PlU0/ju2jLK4dwCQbeHTeQCArGb+/elra45ryl1FC9O5s3+wW436uTPnbj76yOF0UHJSMltW6pcuXuY89Ek/e+osi2H8eep0SnzRormsrvqUkuXKyKeP/5R4O8OXJLLwrXS2d2fO+ds7AIAbsBIFALjTDK837ULSdO1b/vqBPw21cof2JU6uXbztvJe8f366fNtZNXUFKeW8p2LRa/s3775kmNd/fOfdgx7Tm/r8GdPr8ZrJySm+taD5z/a33vklydQv7Vu4/Ks8be+v5yQiIyXZbXq9N/+203Qnp9z8R0qy2ySSCtw/8IGY7S/O+uwvL5mJJz4YN3bleYOIyJ3iNt3uNI+8MVNS3CYRybnz5jb/+PWUvye/eNwe05uSohMRqZU7dijx63uvp+7djvNR5PXc1p+aAkDkw0oUAOBO0r57c1CH8Vuu67+umzB0yJAhQ4YM6Npq5PvJMbESOetNWvVi3W8frZC/QIWHtlXt0fzmE2Ycdcf836gi27qXyFey4URXn6faxXz3f316LTp8fOWjHZ9Yd8l9YGaXh+cfvE5ERM6GfVv8PLJW4XylHvq4xKTVL3aMN05/MPaBJ9+/4t43o+uwVT+z25La96/0H/L2jSfSa8cXDRy8/AddKtDt9Y2zK+4fXLlggSJVH15foFPHu6R/dk7tPOjNk+7vX+3Xc+HXN25lenZN7Tphx9+GXKTz6CHFPh5cu0GH8Vsu3lwOX9g2pXv/hce1fz8a2/GR5cc1ctZ7dvX8eql7V3PsoHLa9gkdHlnx4239uSkARDb8nSgAwJ2kVhu6bNfQZf5fNHLWGrHyy8fZk03cG3sPvfmSfFf7ubtPzyUioqSkpFjXsBsv1P6k3+s3m3mJyNTztXz+k/5z0zxmpWTXeTu7zrvZTK8542jKjNRHqFSf/r13uu+1hHqPr/jfY/95+kzrqZuPT027Ex1XXNZXEJHL5SL5rk6vHur0arpdkQq2n7ah/bT/PH0mZ62R7xwe6WvSzTOFjdmLO6MAcAPuiQIAhIgMVwRCLSEACFcqe0wrEZmmyd7L8jcwDMO3iV/sVf4TUPlBNl9yNh82ftDzr1+PzXvsjWn88QSjxqy1MVtfTu7wxLeTHrpzvRBR5Uem5Ei+TESJMXkiY48qDZ3cfNj4o8lRu894ehTlPT6an2v2qFv2UNxAbfjnG6WeUYGKN6Ttiz8Ydv7zf6WzCL7Rmqb59ttvr1+/nj9CsFFiYuKAAQPS5j10rnWUOgVu/OP6teu6ISUn63r6T6s4cbTkZLeRnJSs6TpvMKE8j/wOJvgcGYbx+eefFyhQgB8kjFgpAhRekpOTa9SoITwZhKccWZiwwjbh9fuIVXvKgnlEd+Ja91//qXIhrArAhsJvw4Jw2kiSxGphBWrQt0zs/l5PmaY5Keq35BZrOX2lpKRwKndxHujPJCQkPF1y6Zy8Z66u5fVipfROYmJiTExMoL5iYmJed5eWJGmi8yRnj4Iv7ZqQkDC+1LKpsT+5RXsUZNHnmJiYxZ6HNl5yLqwp/gMP/slAokpF7FV+EHbtEJ69/L1mWeYHSXcmjB49ukePHmkbWCwjnpiYmCNHDk6DTCnMbXEwQc4jslYBL/h5RBk9LIULF063SYhc61gQwzAkyfhx9dgpr33wcYpbmthxmHfJ6/0rpDsK/uIY5z6aMGT8exc8yS/2GpqwfNmgSgEPbyjPowz04ovDadO5c+cKFSpE0jzauHHj3r1758+fb8s8SiezrnU5c+YMch6xl6ycuhRBv4+sjFbYiy9UFl7r/LRRfbvheysQzBWEReDvua9NoAYb/pIeqZjbNM3TybV6FucVj7p+/Tqn6Kpw5k89lvJxc8f0H2KnNYvh9GLlN6jL5YqLiwtU6uq9s95HYkiSpNNJvD3yer3CCnjs6hCozdRjKTtbRj97pOrMBgFnvjAIa6NpGqdy13tnvY/ESqZprjun83MkPHSZUudXeFJR6lwSnr3C+Za2Qfny5cuXL58uiPDwEpHL5UpISOCMJPgcmamEvyqCnEdEpGkaEfFrygU/j3xB+DmyMo9C5FrH7hDIsizLSqW+L7/f9+XbHIxcvPOLOzu/mFnvFuyaR36DBJ+jIkWKFCpUKJLm0Q8//PDdd981a9YsROZRZl3rgpxHvpWocFkWSb+PrKy/Q/Ja56/u/K0D4gxXKMjNmZ7FHWzSNhTNfOHB5d9pn1o5Wtf1yRV55VbZ4bOyX5y76D2LO9jMb5AvEz5V4QxmauVoIhpbkvfUvvDKkTACZVKOrHdnRSjMI0n0CanF7pCjOzoG5OjOBUGO+CIpR5nSEjm6o2Pg7G/k/LkJAAAAAIQXrEQBAMJI8k/vPfVAo4bNWtxXo0L1Ds9sOnvjI5Drmwa3n/OT6Emd3oPjWo47iGcoAUDIwEoUACBseL6Y2mnY102X7t792f6vtgxKem3sq4e9ZKb8uXfOCx9eEnza57l0eOHMVafxXHkACCFYiQIAhAvz8tFvz8ZXqVnaSURqqZ5z3nt7TG2H9vWCvkPf+PbfYwvaV6pQa+ynHvKeWDOyRdUqdZs2qVOlVufZ+y6ZRPrJ5cP7zNl38fcVvarcU3Xw2pM7J7cqm0uJbrn4vEn6yTXD6xeLdeYbtNVNROblg/P7tGvXpUvrWpUaPvbBWU7NewCAoGAlCgAQLqQ8lSrf9dfGhat+TiIiuUDd9g0Kq6TWnvjx+4+Wi6r85LbjP349r6XT/GfvqtUXO608uGfv56s6/jbzycU/6qSUGbb20+fqRRXpv+b7n44ufahM6+lbF/cuxL6NoJTp9fqWGc1vfH1TO/ryyJejR72/YcOOzY/Hvb/+y0T7dhkAIhxWogAAYcPZYNKyiXcfGF69fOMhczced/m/WSndNXjDiU+equIgUkuULkZnfjvj9yN5yeF0+L4XK0VFRaX+w+Nx//vTl8euGNJdfdYcW94tV+bvCQAAEWElCgAQTqS8TaZ+9tM3qx8r98vCh2tUbDXzwBU/fx2q/Xlo7ZyRPXsOGDr8qZXHvIZh3FY1ULXm8GldrsxrdHe1zhM2nJF4D7oDAAgOVqIAAOFFTqjcZfxbe4//b3alI9MfXXAk/QOE9R/mde4492KnV1a//eaSBf2r8mpPpJFmsaqU6LHs6x8+mdn03/eGN6z7yEd/o6w9ANwhqtd783keuq4LH7Wq63raTW6laRq/6BOrqcDvhT1dlhUz4PB6vZzBWKmFwNrwO2K7w3+4q67rmqZx2lgpMKNpGv+ZuoQcBW6DHPltgxwFihOeOTL+2vT0lAvDXhtaViGKrjSgd4PJT509m+ypqGgmkaF5vV6vQf8e/vyoUWdM6/yG16tdufKvQbk1TdMUMnTDJFP35dsrqyolXbvm8XplMi78ddGgeN3r9UpXv9v5fb5WjYYs2N61zYi6vVbtWtC+a2zqYUGO/MqCecTqiXi9XsyjtFh8YUcUWdc6dvCtnAyhkCPiziM1bWExSZKEBc0UReHX9GNt+CMmUWFA01pBW1VVOXHYpOWXqGLHjtORlTpXRCTLMn8wVoKYpsmvrkbIUYCRIEeB2iBHgeKEZ4501/H96zbmGNZ3Zt0cZFw8uO94ruYz68WqqpE3Xx7z/KmzHrVyTspRrER+Y9/3P3keqvHvZ6t3X4jWC+uyoiikJOTLo1w6dfqa0qSARERK2coVlDd3bj/92BOlr362bNNJWS9hyKrq+WzOwDebHt4xorgcGxvjKJCzSEzqbiBHgWTBPGKbCw9ddssRe4ntNb+jSLrWWTwZQiRHxJ1HN/fBeokq4W4L3w0IG1iplCqMI8uy8K2JlFq5VdiLsA0/TqZ0hBzxe0GObh0McnSrcM6RWvnxRTN+Gj2g/q7CRXJ4k9TKz2xZ8HAhhUypWJcnhqx5bEidhjU7TXx71tMLRx4f3b7kykJ1h7wyY1jVj6dMGbWu6pKHSuVq9/iYWgPG16/3bpsnXl/Yp3TBnrNe3NnnuZoFXyhSvfPkscMrdp839oEJ6sqnRjy+6skHGm8qEpecnGfIsoWNnKkjRI4yFiez5pGVAWe3HPl2J0RylDXXOit7HTo5Iu48EqyCAQAgdEi5649Zc2jMf39omkRy4U6vfNH51dSr/APzdz0wP/X15imjb9zLkRKaTt99evrNTWOqDn/36HAWxDSMh1Om3LgNM3nLt5Pv8L4AABC+sQQAAAAAdsFKFAAAAADsgZUoAAAAANgDK1EAAAAAsAdWogAAAABgD6xEAQAAAMAeWIkCAAAAgD1UXxkoMxV/A2Ebiw2Cb0OpFRGC7Mj3X2GzYOKwZ7pmwaGzHifIjpAjTgPkiNMsmDjIUTAdEXKUoY6QI06DUMiRb3+zVY6sjCR0csRvo/pKhZqmyeqcCkfMry7KioryH/qv6zq/tKtpocivcDAsiMmtnGuxUiqJatGyvjjRdF03DIMfhB1/4aFDjm4NghwFaoMc+e0FOfIbBDkK1CZEcsQiaJqGHKUbKotj5SSPmHnEOuKnIHRyRNx5dLPsKTv6/NKiJCrtyhIQZH1SdnxlWRYWS+UPhmVRGIQ/GEqdkPxDzDri15C1UjyNX0MWOQoEOfLbADkK1AA58gs58tsgdHLE9kVVVeQoLXZUrRRPj6R5ZKXufOjkiD+P0h8p4dqZL8jNbzcIvyV71e+t4LRt+EFMy2Vb+R2lHVKQkKN0kKMggyBHWb/57QZBjrJ+89sNghxl/ea3GwQ5yvrNrQTBN5YQ5dTsAAAgAElEQVQAAAAAwB5YiQIAAACAPbASBQAAAAB7YCUKAAAAAPbAShQAAAAA7IGVKAAAAADYAytRAAAAALAHVqIAAAAAYA+sRAEAAADAHqrL5fL9Q9d1YZ2rpKQkfgMrQYRtfIWh+HHcbrfH4wn0Kqtwyg+SWW2SkpL4O2UYhrA2Q6YcOkKOAkCOAkGOAg0m+CDIkV/IUcbapKSkaJp25coV5CitxMREIrp27Vra9YxfkTSPWISrV69yeqGQyRFx55GakJDga6TrurBsKxH5NvFL0zRhfVJN0xwOByeIYRimaVo5fLGxsZyOWBlZzmB0XafUqrUZDsLExsY6nU5OR8JCtF6vV1hDFjnKWBAGOfILOQoEOfILOfIrC3IUHR2tqmru3LnDKEf8BGWKhIQEK5Uzs0aWzaPY2FhFUeLj4yNgHuHTeQAAAACwB1aiAAAAYL/kr17vf29BNWevD912DwWyEFaiAAAAkEH6r+8/82DFHEquWr3GjX/ykS4t2zzyxrfXMvRpeUydR9+a27NoVixMjAv7Nuy7YPCamNcOb/j4lJ4Fg8nusBIFAACADFLu7vb8W082isp179BZcxa8sW5hs+9Gd59yMKN3NR0Oh+APLINnJJ3ZOmPU7F1/BV6Jmu4L+18cPWEzVqJZACtRAAAACIKi+r6Hopa5t07ecwcPnjzxwVMtSsTVnPLBkv4NSueJLzvogwumefWrRQNaNmnbuXP7pi36vPT5ZXbr9Pp3S/rVKV26cp3GnZ/b5XIQEZmX9sztUimns8rkIxrpP68Z0eguNabre9eJiMh7asPYB1p0eKhXx/sadJt74IpJlPzDyuHN6jRs07pR/Y7P7Ui3xHT/tGpE94eHPdq3Ze3GT2694Dkwf+iEdcd+XjmsTZtBy37RKfGr/+tWt26rbt1b16vX45WvrxNp370xaszSr85sGteudbcFn3+5uE/tfI7Cj37qIeP3LZNal4qKavLKWYPIvHZ44aBufR4d3rNJ7TYzD/wbKl+cCi9YiQIAAEAmMZKTU5TcefLc3XXuS4PK/vLGG0ljdx1a3KtskdxRyXufe3i2d8SG7R9+uG3zxPjXHnpyi8sk/adFw8Z+23z10WNf7Vlc95dPT+pEJOVt+vTSp5uy75Yr5Xu9PLdXiRurXeO3N4YMO9Rk8Udr16yfVOnwqu2/6vr3C/o99m2r5bt37Nw2Kf+yAWM/cqVZE3p2z5vwS7N5r7++ct3TFU//dklp/Nz6Z+rHlOq7ZMeOZYPKKfrpHe98WW3G5vfXb5nX4Ospc7b+S2r1x1fNapuQ7/4Xt+98/8kGdYcvm35/gkREJBfrOP3V4dVvfEvc9dHM6Yk9lry+eM2ywflOnsFKNEOwEgUAAIBM4f39g5WfRD8w6P6CEpGqKkb+e5tViM7f4/VtM5rHHd328YW6HVrmlYgoZ6MO97k/3nTIa175fM+xIh261slBJBds161xjtRP51VV8X1QL/meRWRe3rvtywKNm5ZSiWJaLfrlyKw68umdW38s90CnCk6inPUbV7+6b9d32s0xyYVLFvzmtfGv7vzN0X3xhscrpn+OkFJ5wp4jLzaNJlIK3pXfe/Hvq34+tU9z21dSff8fW6xEzt3zx7114HzhR1cv750lf+IaecRPmQIAAADgMV17X3rskZWJ12Oqv7ZnVMdCN9aQ8l1FCyu+Jpdczvj4qBuvxCfkTDx1yWNedV2l3Hlzsw3U3HnjpQvcjq5evmLkjM8pEREpTicRaZf/uayd+2Bs16+cRGbixVKFqhhp7k6qVcdvfFd5+pnelaYX7TF72aJHauT8T0Tjn8NrFyw9eDkuX66kw79zv8WUXlST57ctnjVuUseyz1Ua/NLb83veHfAJoRBQ+pWoaZrCx7FyZMrTZa0H4bdkr/J3R9gX29zKYbFy3II8vJkSBDniQ478vooc3bp5kAO4rSDIUcY2D3IAtxUku+dISmgyZuGiZukXYpKi+O4Tynny5/H8dCWFKIqIjKuua3F58zilXPG56OqVq2zn9asu30fckiybusZubpopKSns51J8ntzS5X8uG0SKL3C+vI7yD72+YVQJvzclDXfO+uPe/ebxExsn9hz82JLm+8YWSPPqvx89cf9z5mvfre6W3zjx4r7V2/zuqSzLuqbfGEuyO3WMmqdAm5mbOo87umpUjxFPvdfio/75KWRzlNHNgxyAMIiq3cjyjWfxC8MZhuHbxC9N04S7zYoHcBqwKgXC/ecPhlXcYiWzOCPhd8HqU5GF6l78ndJ1XVh0wcphQY78jgQ5CjQY5MjvYJAjvyNBjgINJkRypOs6K2YTUjlSVZU0TSfTTH830dS8mqnrvh+rVTu2L/zOtk8v9e6aV0r8/OMDjtZz6jmkXA2aVBy97qPvnq1dK+bSZ9sPuY3KbJuoosXznz9y5G+j9l2Jh7buvWiU1HQiKU+z+xuOnb90x1N1OhZUEo9/uE+6v02HztVeWLvqu0HP1shBSSe2f663anlP6p028/K7A9ocG//583XKdujZrNBXmk7kjI1VXP9c0olUM+Xy5aTYewrlksh9+uCh3/UbeZBi4mKS/vonhchJREqR4oWvbfrmpLdNBf3H7Z+cYK2M3xZ2HWK8+emTpat27VbvuSWa4fV6KUvmETsn+edMuMwj1Vd5ib0sLGgmSZKwtCi/KpSvDacBm65BDkaWZWGxYDZO4RkjLNHLqnLxByysriY8LMgRfzDIUTrIUaAGhBwFHgxylE7o5IgtTfhFOCnLc6T/+v6kp+YfSLlwdOqwHKcfnTy4bg4iIv23D54Zs+zH5Cv/N3S0+6nJIxvnlSi64bS1k8c83a3ju/mVyxejB65e1Cm3RFThsSVzvh/SrfLG/MUrPPBo33pL58zoPzfPonHN64+a3a3H03UqvFmuUrOhfduoM14c8lLJN0c3GvrWirPDn7m37LicueJLd31+aScl76hVi/96tG+NCkqO6OhiD8x6q22afY2v36X6G2M69Smb5/pFc+CLE8srRE0GPlL0keEt/245YPLLnZ8Z//7wPtX2l6rS8akeXQs9snTaug5v9by7Tu9htXpNaPngx73Hv/pEg3sGzxix49EWFd4ve0/9/g91zzPu9cdnVHjj6eZd848Y2OVIqVjXpdhnZ/cs6FDNrJlHrIvImEeSb31qsT6py+XKVnV+LdaQdblcoVPnFznyCzkKBDkKNBjk6FbIUSBZkKOFCxe+//77u3fvDqMcZTdZNo+WLVu2ePHiQ4cORcA8wve8AAAAAMAeWIkCAAAAgD2wEgUAAIA7wuVy8Ruwb8NwGpim6fV6OQ2uXbsmSdKpU6eEg0lKSuJ3xL4Txmmj67qV7wDBbcFKFAAAAADsgZUoAAAAANgDK1EAAAAAsAdWogAAAABgD6xEAQAAAMAearqviVkpMCr8mpuVBsKOgm/DHqMqHAxx98j6aIVxJEmycmT4HfF7sdgGOQrUADm6FXKU4Y6QI35f/I74vVhsE2E5StssmDgRliPf/oZCjrJsHlk8WzKlzZ2eR2raYqPC5xewNkHWJzVN00p9Uit7pWmasM4vP4jFNvxiwZRatpVfPENY04I9G0JY2hU58tsGOfLbBjkK1AY58tsGOfLbJkRyxJZK/ONP2S9HLL6weDpF1jyyeDKESI6IO49UX3Um1o2wKpSiKPyCTqyuKH/EkiRlSnU1h8PBiWNmYQU8RVFUVeUMhkXgz3wiElZXQ44yFoSQo8CQo0CDQY5uhRwFkgU5Yps7HA7kKC32krAjiqx5xA4a/2QInRwRqn0CAAAAQAjCShQAAAAA7IGVKAAAAADYAytRAAAAALAHVqIAAAAAYA+sRAEAAADAHliJAgAAAIA9sBIFAAAAAHukX4laqQrFEeTmtxtEWH6KRCUihJUz2OZWhsTvKO2QgoQcpYMcBRkEOcr6zW83CHKU9ZvfbhDkKOs3v90gyFHWb24liMpKV1GaQkzCVPk28YtVF7BSC0vYizBP/MGwfRFWoKLU+l2cV61E4A+GBeEfGWHRW+SI8ypyFKgX5Cgd5IjzKnIUqJdQyBHbEf5oKfvlyEytwC48MpE0j3x7HRY5Iu48Un2hzdQSVZxAZOENgXDSWjkuwjmQNlqGh0qp55NwtPyOfKH4gxEGsXLokCNOEOQoHeSI0wA5ChQEOUon1HJkMVT2yZFvd0InR/yOfKGCyRHrKFxyRNx5pPpqgLKXhaV1ZVnmtzFNU1if1BTV8JUkSdhGOBhfDoTvTvhB2PsSfhBZloVHRljn1zAM4aHjj9Y3GOTI70iQowwMBjnixEGO/EKO/HYUfI4kSWJlxJGjtNhLwo6EbcJrHrEuwiVHxJ1H+MYSAAAAANgDK1EAAAAAsAdWogAAAABgD6xEAQAAAMAeWIkCAAAAgD2wEgUAAAAAe2AlCgAAAAD2wEoUAAAAAOyBlSgAAAAA2AMrUQAAAACwh5qUlMT+zzRNXdf5BZ2IyO12+za5lZUgrI3X6+U0sFI5ioiSk5M5r7Iip/yiW7quk6hyFyu3yi+M5na7ZVnWNI3TkZQqUBtN06wcOuTo1sEgR34bIEeBBoMc+R0McuS3gY05unr16ubNm/v06cP+6fV6DcO4fv06y9H+/fvj4+OrVq2aLk52yxGLn5KSwumIiaR55PF4DMNISkoKixzx55EaGxubNpCqqpzhEpHH4/Ft4peV01fTNIfDwQnCTgjhzCcizmCs1JC1eFYJa8h6PJ7o6Gin08npSHhqer1efkFh5CjDQQg54kKO/A4GOboVcsSR6TmKjY39/PPPp02bNnv27P79+zscDlmW4+Li9u7dO2HChPPnz585c+bWONktR+y4RUdH8ztiImYeOZ1OWZZjY2PDIkfEnUf4dB4AACBETZ069fz58wMGDChYsOCXX37pcrnq16/funXrL774Ytq0aXaPDiATCFbKAAAAYJeSJUv27dt37dq1f//997vvvsvuchFRwYIFBwwYYPfoADIB7okCAACErunTp3s8HiLSNI0tQ6Oiol544QW7xwWQObASBQAACF3stmjaP8JLSEjADVGIGFiJAgAAhLTp06f7vpiMG6IQYbASBQAACGklS5bs06cPuy2KG6IQYbASBQAACHUzZszwer2Kojz//PN2jwUgM2ElCgAAEOrYbdH8+fPjhihEGNU0TfZ/7HGsrDYAZwP2lHzOq+yZrsIIwiCs1AF/9KwZ/1X+eNjmQQYhCzvlO7D8Z8NyIlAm5Wjv3r3vvfcev7oGi8A/bqwLYY68Xi/nabcsDn8whmHwO7IShIjcbreqqpwnErOOhIOxcuisDCYqKooT5O677x4zZgwnAuYRPwi/F1zrMhaEwipHEXmtq1ChwogRI3CtSzdUsnBSUWTNI+FIKHyudSpLocUBMek2CTQm/qv8IFbaUOq+8YNIksRvQ6I9stKGEXZkJVX8M0YYRDiS77//fvPmzZ06deJsLhyDsIEPp4aExTjC0iYWBxMdHR1kR1k2mOPHj//www+jR4/GPPIbJBTmkZUgyBGnDa51txJeXuLj4+Pj44Vxstu1znfKZat55OslAq51atr1qWEYiqIIR8xZGrMUWlk784NYicNactpYqf3KZEobfl9sl2VZ5hxe1oB/VgWfI1mWy5Ytu2jRIn4EsNFrr722du1azKNbhc48wrUu0KuhkyNc60Jfplzr2KLZyhSIpHnEpk9kXOtuVpVlbwVI9EZHeCveShCLDYRt+DmQZdn3GUSGB2Omfi4T5F77Xgrm8GZWjiBcYB4F6iIU5hGudfwuQiFHEC4wjwJ1EaiNL0IEXOvwjSUAAAAAsAdWogAAAABgD6xEAQAAAMAeWIkCAAAAgD2wEgUAAAAAe2AlCgAAAAD2wEoUAAAAAOyBlSgAAAAA2EPVdd33D/b/wuf1p90kHdM0hUFYuSd+ELJWKUvXdU4cfoVZXwRhLyyO8LD49j1QR+ypuZw47LDwOwo+R1YOLIQC/smAecQJkgXzCNc6TkchkiNc68JFkNc6TdNIdDL4OoqYecRO78i41uGeKAAAAADYQ2UFW4nINE1FUVRV5W8gy7Jvk0AUReGvnVlfnAjsfYCVjjht2PsJYdEtSq1aG2i0ZKFyF2vAH7AkKmjL6sPyD13wObJSMBdCAeaRXyEyjxjkyK8QyRGudeEiyHnEzhOLEzZi5hF7KTKudZioAAAAAGAPrEQBAAAAwB5YiQIAAACAPbASBQAAAAB7YCUKAAAAAPbAShQAAAAA7IGVKAAAAADYAytRAAAAALCHmra2Fft/frUr9vzSQK9KksRvYKUX9vRUYRwS1eby1ZUSxrHSEf8hycKd8r1k5eAE0xFZO3QQ+jCPOF3YPo9wrRN2YXuOIFwEOY98zbLVPLJ+WITNbL/WqWnLgJrcKqg+/GK+7DH6wvqkwiCmqGyrL1TGXmUs7q8kScJQwsEIuxMeOsqMHKEWc7jgV+7GPOJ3dKfnkZWOkCN+R7jWARPktY6dJ1ZmQSTNIzO1knsEXOtU37Kd7ZXw6kDcEmqmacqyzK9zxcbKD8I2F9Zq49fC8r0p4bcRNmDHxErhOOFOCQ8vv6NMyZFwWwgRmEe3Cp15hGtdoJdCJ0e41oWLIOcR29bKqRtJ88jKXofLtU5NG5p1xh8uf5fY+wB+G+EuSal3ca0cO35HwhqybH+DDEKph4W/U8JTU3hkKJNyxN8cQgTmUaAGITKPcK3jNAiRHPE3hxAR5DzyndvZah75FnYRcK3DN5YAAAAAwB5YiQIAAACAPVS7BwAAcENCQgK/gaIowiAOh4PfQJIkVRVf+oSDEQaRJEk4GACAbA73RCGi6D+tfOS+EjFy7EMfuO0eCwDcWWfPnrV7CLYy/1nfq2jRXuv/wZOsIJxhJQo20U++O7JhUacsO4s26LfkiEZEZJ5f3CpH+fFfakRE+ok1T7StEK9EF288at0pi49jUe7p98bHczvE4JsK4c74Y9uUB+7J4awymZ0bt0v/Ze3oliWjo5st/B2P8olkJUuWXLFihd2jsChx39xude5yymrxxr0H9O/T4/6mDVv1n731t4y+bZaiCpSrVq1cgShc8CCcYSUKNlHKPLxw64JO8Uqp3i8tG1ZdJSLTtfeTQ0mnPtn5s05EStleL6+d1Lx478XbX+lR6jbOVNXpxHkdZkzX12+NerBlmwe6dGpdu2KtbnMPXC3cfuqKCc2cGY2olHto/uLHatzm3x/pp3dsOPwv9waTcWHfhn0XsLoNCcWLF2/YsOGAAQOKFy8eDuvRHI2fXv/R5MZOR41HXnt7xTvrNu/aNLn4lr73PbTstwy936KcTaZu3Tq1Sc5MHidAlsJvbLCPFN/8/sbRp/ftP82eu5v8+Weny1TO9eOOT86yX/QpXx389b77G8cRmVe/XjykWY2a9zasW712h6c3nHQTmRe3TWheJkdUg7l73x9Rq0BMTL7a43f9mya+fmJVr3viZCWhYt+VJ3XSzm6Z2LFmpWq1qlas1XnaJ38a4giQJdzfzb2/wxs5n/ng400bNu7ctaDWVy+t+NJLkqoqwdzrkRRVvZ3t9Ws/r5n0+GuHOCtRI+nM1hmjZu/6CyvRUDFr1iwiOnfu3COPPFKsWLHQX486nGn+dFjOe99zrwzPve2ZZz+6YhIRGRf3vtCjbqUqtapXrNrmqQ9+85j/bH+6bgFVluPKtpm151/jnx2TmhSPVhKq9FvxxZYJzcvkkKPbL2Ofzut/fjqze8O6jVo0qVOj8aAl3yb6DWjHPgNwYSUKNpLytuzQQDny8Sd/GUTk/fqz43UmPdM69tsdn100icj77Y7/lWt9XxyZrq1jOj/758MbDn1x8MvP36y3d2CXmYc9Uv72z29/tUf8D8umft5k40/rH4756/xVLc0qQilZu0ahYl3ePPTNqn5l6JdX+/TdVuGVz498/e2OEZ6XHx655gKJIkAWMC9vnDX3eOOx4+rHS0REuZrN2Pv1y21u3A2V/94+sXPTWncXLdPkyU3n2ALQ+HvXjM716zVv2+zeJoOWfp/EfvjXp9O7t2zbvXfnpvU7TNx2Ps1aUf/5nR5lHY6C945c99vNYiPmtcMLB3Xr8+jwnk1qt5l54OrFrdOGzdz22zevPty67ZgNf5nmP59NaV+7fvseXZrVaTho5c9eIu+B+UMnrDv288phbdoMWvrlrrldKuVkfz+g/7xmRKO71Jiu710nIvPi7pl9ug8YMbRzwzpdFx3FnyzfQSVLluzZs6eiKB6P548//hg6dGjRokVDfz16k7Na+1ZFruzcfDCFyPxzzbAeb+Z4dtd3X3+7f0ahtQMGLPo1d7s5m15oE+es/+TyiU1zyfnazFg+ukHjyR8u739vx+e3v9oj7413W8bZ5YMffjvP5B37P9u9YYj63nOLDnj8BTwhrrcDkLXw3Xmwk1Swdfva5rPbP7s8vF/C8U+/KtNySuuU++THduy+OqRnjh927C3UanRuia7vWv2hq+nrPUs5iCi2Wr9e1Z5/ec2Xk2s3ckjOKPX6tfLtOxXLo7z646+xOaIlchORJEvGpc8mDNnectXmQeWjifRf3l99uHS31+vHS0RF2rSvPnLSx1+4+zwY7S9CCLh48eK0adP4bSyWNhY+7dnr9fK/4i189LqVjgIFmTqx4a7918uOrub7hDGqYMnCqf+vnTic9MbePXOjTixoXuOpl3u0e/Fe9crGMb0Xxy06uqFLwokX76s18KV6hyZVurz+ib7ry2z86oV66uGJNbps/P659oVSg0ixkpKv65tbVwwoF3WzY9dHM6cn9jq1rEfMydf7zjxzLW/vuct+/aLaloff3TmyqEzk3bfpnd/brPt2Vq2UD3uXfPzlPj1fa974ufXPHC46t/qSHdOqqUS09On9xeYRESnle7089+sdrU8TERmn35myLH7qT4uay4dn91j9R/LUDc8Hc+jI7hyllZKS4nA4OA8xsNKR8NS12CYlJSU6OrpgwYKaprGuvV7v+fPnhw4dOmnSpObNm/M3Dw1K4WJF5GtnTv9jmI4t7+yM6bitXUGZKG/LDvXN/jv2XhpdtuD9PZuPGfXZvivDe+aRzH/2H0roOb+0QkQkOaMc7EAb5zev2RPVZkuz3BJRkc7Pf1CneAunecF/wAIhcZG7IfhrnceDO73hTXW5XL5/6LoufEhKUlISv4EwCKtPGnwbInK73ZxT0DRNVqWKE0FYooqslUhOSkri77iu68JaCBbbBJmj5ORk9qsiJMjF2rSr8vSL2/de611918E8zUbkyqu3u9f73McHkrrf88nu6BZvFZLJ+Ou3Myn56hWNubHNXcWLqn+ePJVEjeKJiNSylco7iOS4HL43VpLT+PmVngsWG+O+qRFHRET6qV9Pe35b3r/hFpWIzKRL+fMW86QQRQeIYDfDMFJSUvhtLNYrF7bRdZ1fmPjOrnL0K5ddZlzOHH43Voo271AzjohK3lun4ORTZ710r/HFlp0pTd9om1ciKtWoQaEpew78PbHs19s+o/prakQTUa1pX59UnQ4yiIgU+ereSY+tqr7kw/8sQ4kotliJnLvnj3ur8MTej65eTkT034/cHY3nfbM3OU4liipUOLfr1D9+DlHavx+4+WgoKaF4seR5syY3in+y68QNtYme2ctLZRjkKA2v18tvllmnpcXBEJHb7eeus67rbrc7hK51PCbLj37m11OeSz+Muu9QNBFRypW8hcpr100qkK9d9+bm4+t3XHno4dwXNm8xOr5aJP3vLP3c6d/NQi0LKUREcuF67QoTkRYgIIXSSjRTrnXjx48norTrGb8iac3AIrhcrju9ZrASJMh1nRobG5u2M1VV+VNX1/W0m6QjSZKmacLd1jSN8yg+SZLYiIVviGVZjo6ODvRqVp5Vuq7HxMRwdspX/otzePmHxddRkDlyOp2hVARPubtt23JT39rx+flr+6Wm8/NLErVqV2P0y598ee787uRms0sp6RcIt5Bi49J/V968tuPd46O6Vl4wZ8yyHlsfKSkTkWk6ao7d9OmjhW/deT8R7FagQIHp06fz22TWPGI3lgK9eufn0Z7c8fTrpSsmFbl1Kykqmt2kllRVJdMwiVIuXbru/eGlhzutkIjc/8SVKay6zeTLV5JzlM/Jmqb5Szz9zIrHRv7+7fWWvyWaVf+b5Kgmz29bPGvcpI5ln6s0+KW35/cs+997jt5zB1a+tPrblPj8cRf3XzKLWl/TSLm7vLb92uSxE5uUmtDgideWzQiUyvDJ0U3Xrl0LnWvdtWvXcubM2bdvX1VVNU2TZVlV1Xz58k2bNq1fv36LFy/esGEDv5cQoP9x9ryRs0mp/DL9SaSUGbzy4JSq6X6H5m3fo8XjI97/+EqPJpu2qQ8sLnhrigIdJ/8BQ0hWXusiac3gdDplWY6Li+P0QmGyrlOdzht/jsUSILw6KIri2yRQf4qiCN8x8z9pMgzDNE0re84ZjG+3OYNhtxn4nzRZqSGrKIqqqpzB6LourMXMHrjNP3TB58jKs8Gzklq5fZviczd/vEz7t9ETxWUiKtG6XcVJ729fcfGvxiMrqkQk33V3qZiLZ39PIoonIuPPs+e0QrVKBZw4RORsM+XN6e2/9R5s+txT73Zc37uwUrp8GfPTYz95qHAUZ7uQweZItphHZo1G9aJX7zvwp1G5qJU/XI/OmzdHrubPrV/SKs2YU47ljnFdvKwT/feASDHN5+zrd/CB+k+M/ajh253yp+1d8xRoM3NT53FHV43qMeKp91p81DfNi8Yfywd3Wlj+o8OLmub0fjHuww2n/I1FkmVT19jXns2UlJTUq73HLNnj/z7tM+mLhUN7DJrc6NSy9jEB9iY8cpRGqF3rzp8/v27dOkmSnE5n/vz5Z86cOWDAAN+r/M1DgufI9k/+SGh9f8NoUkqWKyMvOf5TIlWN/28jKXfb7i2lRzfuOPEoWhgAACAASURBVH7l49gH38p364FTipcuTst/+jWFKt5cmgQOGEKy0bUujeDnEZtBwkMXFus6fGMJ7Oao2aFNwVNr3jhWrXlFlYhIKd+mTckf315yrG7rWuy8jmver3vevSvf/c1LRMnfv/PukdI9e9ZxEJHhTvGY7CM6H6/bbRhej5di6j3z0uCcW8aOXHlaV8r1GHBf4tpZ//fVFZ1013fLRjy7iX211E8EyEpS/q7jR9z9v9lPvHU80SQi899jKyYvPqyR6fVqppH2M2lN04mcDbp2VHes3HReIyL94v+2/++iSVH1H2jj2Ln0vVMeInL/tnnT4RQyNa8mJRQsmKvCY6+OK7Rh1BPr/0hze934bWHXrm+cMuSEql271cuhawZJsXEx5qWLlwwiMq9dvqLluqtgLNH1Hw58c8nQdYOIyBkbq7j+uXRjUFFFi+c/f+TI3waZ/x7auveioWs6kXZ4euvBH1wy1QL1+jxYRdbwJbg7aMKECURUuHDhJUuWnDt3zrcMDVlej+fm+WBcPjDzidcvtZw59cHcEkkF7h/4QMz2F2d99peXzMQTH4wdu/LGV++khLbdW8m7Fo/9KFendnl8CwLT6/GayckpJsl3PdC/rfzR87N3/ekh498f350wf4+HExAghJipDMNgfwDEd+XKFX4Dr9fLVr6BGIbh8Xj4QXRd1zRNOJjr16/zO9I0jT8YTdP4HVkJYprmlStX2N8kcTrSdZ0fxOPxCA9d8DlauHBhkyZNhEGy0vUtAwso+Qds9mXTvXdUSTX3wx/862tiXDvy1iPNatRscF/9GrVaj1rzY5JpGn9vf7ZlmThJcha5t9uoFcc10zS1H1c8cl+JaEmKKdFk9PtndMN1cFa7MoXKtpi1/7r+56czu1YvnJCQr1Dp+gOXHEn0GyEULFq0qHHjxtlpHnn/+PSF3vXLFCl+9z0VKtRo/fjqH6//sX3ag/fEyY5izZ9472fN9B56upwjvlrPxV+nmMbl/73Uq265spWqV6/ZZNCy4ymmaZrGxb0vdK9RumT5KtVqt3ly4+mf1j3ZqqRTiinbccrWc7r7h7cerly8WtdF3/imacp3i3o0bPxg3/4P399x8JIjiaZp6mfXDq5WomLznk+vO+k5t2lM47tLVqzTos/8T5Y9nDvfvU9tPa+bxj87xtUvUbZRt0ffOuo1Te/JNYNrFS1crm7TzuNXz+uUI75q9wX7r1zZP6tD/Wbd+vXv0fHBUe+d4KUpfHJ0Q0hd67777rsSJUosX77c76uhd627tn/eQ/UKOyWlRNN+gwf1e6hj43qNH5r8wc83k2tc+eKVfvcWz5OQp0Dxmj3m7r908yi51vfMoxTo91HqZVH7ccXwlmVzSJJaqE6PeQcSTf3vvXN71i4WH5cjd9FaPV/+8qrBDxgKst+17obg59HSpUvr1KmTBWsG886v627+CQJrJ7yL63K5+OWY2d8T8O/iapqWKXfak5KSOH/cYGbhnXaXyxUbGxvkJ1Zer1f4iVXwOVq0aNH69ev37NnDDwI2eu2119auXbtnz57sNo+yobDLUUhd644ePVq1atVAr+JaF/qy7bUu+Hm0bNmyxYsXHzp06E6vGejOr+vw6TwAAISl4sWL2z0EAAgWVqIAAAAAYA+sRAEgVLhcLv5DqnVdZ09R4WB/F8VpwD5IsjIYfgP2N0/8jvBdOAAAPqxEAQAAAMAeWIkCAAAAgD1UXwU59h0r4TdbDcPgF51jr/K/YyUMwr5jxR+JcDC+hw4IvwfHwUYrLN7A2nCisWPL3ykWQfg9uCBzJPxwE0KE8GTAPAoUJAvmEeFaF7ijEMkRrnXhAtc6vx3x5xE7vSPjWvef52hYecaKsIYVC8JpI0kSq4XFDyJs44vGf4l/NrBX+UHYeSkcDP/osccx8IMIH30i7MUXR3hYIPRhHvmNEyLziHCtCxwnRHKEa124wDzyG0fYQDhaYS++UPZe61TfbvjeCgRzBWER+Hvua8NpwAYtPMTCy5mZGTVkhQOm1DwJj4wwl/wGmZIjCBeYR4GChMI8wrWOHyQUcgThAvMoUBDOFGA/j4xrXfofCdfOfEFufrtBhAeXUvef04YfhG1uZUhWPhrI4uNz58YAoQ/z6I4GwbWOL2JyBKEP8+iOBsmCMeDdJAAAAADYAytRAAAAALAHVqIAAAAAYA+sRAEAAADAHliJAgAAAIA9sBIFAAAAAHtgJQoAAAAA9sBKFAAAAADsoXq9Xt8/dF0XPmpV1/W0m9xK0zR+0SdWCJXfCysMIKwa7PV6OYOxUguBteF3xHaH/1xWXdc1TeO0YbVf+YPRNI1f8ZYyI0fCgw+hwDRNr9c7c+ZMTgNhORCLz1j2er0OhyOYIJnVxu12q6qqKEqgBlYmo8U2wnIsbrc7KioqmI6yMketWrWqX78+f7SEax2EHnatw5rh1gb8ecQmCP/QUZis61RVVX3/kCSJ8zuAURQl7SaB2vBHzDrmj9gwDOFgVFXlxDEMg/0a4CebDZgzEmGdKyKSZZk/GCtBTNNUVVVYBCLIHKE4XliQJElV1X379nHaCH+XW2yj6zp/ClAmrUSFI9E0TXj1yJRdtjgY4WUqywbDz9H333+fkJDQqFEjXOvSDZW/OYQCdq3DmiEdYRD2ahbMI1+bO5ejm/tgvUSVcLeF7was1MsSthHGkWVZ+NZESq3cKuzFSpWwO91RpuTIyuYQCiRJ2rNnT6BXTdPUNI1zn4xSL6zCy1BSUlJsbCynI3YHMcirszAIEblcrtjYWKfTyelIeL/N6/UKf7Hpui688rpcroSEBE4DK+vmrMlRu3btcK27rZcgpGDNEEyDOz2PyPIeZThHeMsIAAAAAPbAShQAAAAA7IGVKAAAAADYAytRAAAAALAHVqIAAAAAYA+sRAEAAADAHliJAgAAAIA9sBIFAAAAAHuovjJQZir+BsI2FhsE34ZSHwodZEe+/wqbBROHPdM1Cw6dMI5pmidOnBg5ciQ/CNjo2LFjJDrrMI84bbJgHmVWR5mVI7JwwgjbWG8QFjnCtS704VrHacCfRxZnfVhc61RfqVDTNFn9EuGI+dVFWVFRYYETYS1mYQFZ4WBYEJNbSc9ipVQSFY5jfXGi6bouLHXNjr/w0AWZo0qVKt1///3Cw2ulMDf/2DL8KoVWgpiWq0TwWSm9I+wlsw4Lv4x4xYoV7777bn6uMY84bbJgHlEoXevYYPg7lQ1zhGtdhkdCuNYFEDrziHVk5dCF/rXuZtlTdvT5xesotVgqpycKuj4pO76yLAsr4PEHw7IoDMIfDFkrMMg64teQtVLgzsrlI8gcNW3a9L777guySqHvzY3w8F6/fj0uLi7Qq1ZKHWqaRpmRI5fLFRcXx9kp329HzpGxWElSmCN+JUkrQTCPArXJmnkUUtc61oBfVpTJVjnCtY4fBNe6dMLrWmel7ny4XOvSH6kg340F/2butoLwW7JX/d4KTtsms96k8jtKO6QgIUfpIEdBBkGOsn7z2w2CHGX95rcbBDnK+s1vNwhylPWbWwmCbyxB6Dp9+rTdQwAAAIA7CCtRCFEul6tZs2Yul8vugQAAAMCdgpUohKj58+efPn36//7v/+weCAAAANwpWIlCKHK5XPPnzyeiefPm4bYoAABApMJKFELR/Pnz2UMlvF7vK6+8YvdwAAAA4I7AShRCDrsh6vF4iMjj8cyfPx+3RQEAACISVqIQcnw3RBncFgUAAIhUWIlCaHG5XAsWLGA3RBmPx7NgwQLcFgUAAIg8WIlCaFmwYEFKSorD4YiKimI/URQlMTERX6IHAACIPGraW03CsrlElJSUxG9gJYiV+rysMBQ/jtvtTnvzLB1W4ZQfJLPaJCUl8XfKMAxhbYZMOXQUzjm6evXq/PnzHQ7HY4899uCDDzZu3Pirr7564YUXPvjgg/nz5w8cODA+Pt5KHL+Qo0AwjwINJvggWZMjr9ebkpJy9epVTgTkKMNtMI+CaYMc+RV8jlgE/qynMMmR6isIy8q/8qupMpwaskSkaVqQdX7JWoleIkpKSoqNjeV0xMrIcgbD/h6R05GVIExsbKzT6eR0JCxEa7HObwTn6O233x43btzo0aMTEhJOnjxJRFWqVFm7du3p06dnzJixfPnyqVOnCoNwIEd+YR4FEi45cjgc0dHR8fHxyFE6oZMjzKNAkKNAHfFzFBsbqygKf9aHS47E4wPIMqNHj/b785IlS7799tv4U1EAAIAIg78ThbDBf9MGAAAAYQcrUQAAAACwB1aiAAAAAGAPrEQBAAAAwB5YiQIAAACAPbASBQAAAAB7YCUKIco0TSISPpINAAAAwlf6lSj79Z9hQW5+u0H4La0sZdhD/zkN2OZWhmRlzZTFxycUxoAcZf3mtxsEOcr6zW83CHKU9ZvfbhDkKOs3v90gyFHWb24liKppmq8dKx7AZxiGbxO/NE0zTVNYRkyYbPY4/mAGwypusZJZnJHwu/CddsLqXvyd0nVdWHTBymHJPjlie8pKO/C7QI44g8E88juYCMsRO7xerxc5Sid0coR5FAhyFKgjfo7Y/vLHEy45Un2/5tnLwt/6kiQJS4vyq0L52nAasFMhyMHIsmyKCtGycQrPGGGJXlaViz9gYXU14WHJVjliP1QUhVUqQ44yMBjMo0ANKLJyxA4sv6YfcpThwWAeBWpAyFHgwdzpHLEuIiNH/6kqKzx2VtpIqTjDJdF9afaqcDDCd3VW+uI38EUIcsDCw2JlMFZGYqVNWOQoXXzkKJ1QyJHf7vgRkCO/4wwyR1amibABcsQfJ+ZRoDjCCMhRoAjB5MjirA+LHOEbSwAAAABgD6xEAQAAAMAeWIkCAAAAgD2wEgUAAAAAe2AlCgAAAAD2wEoUQpTF7zACAABA+MJKFAAAAADsgZUoAAAAANhDTVd5yUqBUWHlVisNhB0F34bVlRIOhrh7ZH20wjiSJAV56NL2FUybsMiR75AiR5wGmEeB+uJ3xO/FYpvQyZHwuFlpgxwFE0fYBvMowx0hRxmLkK5lMG3udI7UtMVGdV0XBtJ1Pcj6pKZpWqlPamWvNE0T1pDlB7HYhl+IllLLtnLasF3mlwhj9WH5HWWfHKWrO48cpRMKObrdNsiR3zbB58g0TVbGmhMBOfIL84jThpCjjLbJghyxdTM/CIVJjlSHw+FrJIkqFxORoii+TfySJIlfn5R1xA/CDrGwWKrD4eDEYVdnfnUvNtk4HVkJQqnl0TmDYRH4M5+IVFUVHrpskiO2mw6Hw1eAPgNB0kKOAsE8CjSYcMmRLMuyLPP3GjnidIR55BdydKvQyRE7aA6HIwJyhL8TBQAAAAB7YCUKAAAAAPbAShQAAAAA7IGVKAAAAADYAytRCFEmaiwBAABEOqxEAQAAAMAeWIkCAAAAgD2wEgUAAAAAe6RfiQqfxc8X5Oa3G4Tf0sofGgqrMrDNrQzJyl80ZvHxCYUxIEdZv/ntBkGOsn7z2w2CHGX95rcbBDnK+s1vNwhylPWbWwmistJVlKYQkzBVvk38YtUFrNTCEvYizBN/MGxfhBWoKLV+F+dVKxH4g2FB+EdGWPQ2W+WIbcWGSshRgDaYR4GCZKscMciR345CJEeYR5yOkKNAQThHxkytOx8BOVJ9oc3UElWcQGThDYHwhLByXIRzIG20DA+VUs8n4Wj5HflC8QcjDGLl0GWfHPmOGHLEiYB55LdNdsuRldEiR5wImEd+2yBHfjui0MgR6ygycqT6aoCyl4VlW2VZ5rcxTVNYn9QU1YeVJEnYRjgYXw6E7074Qdj7En4QVvdZuFP8E8IwDOGh44/WN5gIyBHbyjdO5OjWBrbnKB3k6NYGWZMjSZKEhaEZ5OjWBphHfiFHHKGQI9ZFZOQI31gCAAAAAHtgJQohyrTwx+MAAAAQ1rASBQAAAAB7YCUKAAAAAPbAShQAAAAA7IGVKAAAAADYAytRAAAAALAHVqIAAAAAYA+sRAEAAADAHliJAgAAAIA91KSkJPZ/pmnqui6sF+d2u32b3MpKENbG6/VyGlipHEVEycnJnFdZkVN+0S1d10lUuYuVW+UXRnO73bIsa5rG6UhKFaiNpmlWDl02yVFKSgoR+XYEOfLbBvPoVtkwR6yXpKQk5Oh2g2AeBWqDHPkVOjnyeDyGYfBnfbjkSI2NjU0bSFVVznCJyOPx+Dbxy8rpq2maw+HgBGEnhPCsIiLOYKzUkLV4VglryHo8nujoaKfTyelIeGp6vV5VVYXJziY5ioqKIqK4uDhh5VzkKBDMo0CDibAcKYricDhiY2ORo3RCJ0eYR4EgR4E64ufI6XTKssyf9eGSI3w6DwAAAAD2wEoUAAAAAOyBlSgAAAAA2AMrUQAAAACwB1aiAAAAAGAPrEQBAAAAwB5YiQIAAACAPbASBQAAAAB7qOyx4ZT6OFZWG4CzAXtKPudV9kxXYQRhEFbqgD961oz/Kn88bPMgg5CFnfIdWP6zYTkRKJvlyJca5IgTAfMoUBB+LxGWI/YScuQ3SIjkCPOIEwQ58huHnyPhSCh8cqQahmF9QEy6TQKNif8qP4iVNpS6b/wgkiTx25Boj6y0YYQdWUkV/4wRBhGOxEqQUMgRK2XhGydy5PdVzCO/bbJbjsjC4UWOOK9iHvltgxz5bUOhkSNfLxGQIzXt+tQwDEVRhCPmLI1ZCq2snflBrMRhLTltDAu1X5lMacPvi+2yLMucw8sa8M+q7JMj9kPfEUOObh2t7TlKBzm6dbRZkyMrDRjk6NbRYh4F6gI5CiQUcsRSExk5ullVlr0VIO7tel84fgNhEIsNhG34OZBlma2+gxmMbxkU5F77Xgrm8GarHPkGyVKAHHGaBdMRYR5lKIiV0VoZqpWOSHToLB4WfgPkKJiOCPMoQ0GsjNbKUK10RJGVI1+ECMgRvrEEAAAAAPbAShQAAAAA7IGVKAAAAADYAytRAAAAALAHVqIAAAAAYA+sRAEAAADAHliJAgAAAIA9sBKFECV8jCgAAACEO5XVVGTY//N/9xuGkXaTdEzTFAZh5Z74QchapSxd1zlx+BVmfRGEvbA4wsPi2/dAHbGn5nLisMPC7yj75Ihtxd88XRzkKF0DwjziDjhicmSl1B5yFKgN5lGgIMiR3wjCXrImR2x/IyNHuCcKABBmXC4X59XTp0/zGwAAhA5VURT2f6ZpKoqiqip/A1mWfZsEoigKf+3M+uJEYO8DrHTEacPeTwiLbrE4nNGShcpdrAF/wJKooC2rD8s/dNknR2wr37bI0a0d2Z6jW+NwRkvIUYDRZiBHiqLUrFlzzJgxAwYMoNQaerIsnzlzZvLkyWfPnt2zZ0+gOJzREnIUYLSYR34Hgxz5HS1lSY7YS5GRI9wTBQAIMwkJCZ07dx44cGChQoVWrFhBRCkpKaNHjy5VqtSqVaumTp1q9wABAKwSrJQBACAEjR49+sUXX7xw4cLw4cNN09y1axe7M3rvvfc2bdrU7tEBAFiFe6IAAOEnISFh7NixMTExKSkpbrfb4/G43W6n0zl79my7hwYAcBuwEgUACEtjxoxJ+5dbsizXrFkTN0QBILxgJQoAEJZ8t0XZP1VVxQ1RAAg7WIkCAIQr321R3BAFgDCFlSiEKOEThgEgISHhqaeeioqKwg1RAAhTWIkCAISxJ598UlGUGjVq4IYoAIQjNe2dJ/b//HtR7PmlgV6VJInfwEov7MMmYRwS1eby1ZUSxrHSEf8hwMKd8r1k5eAE0xFFSo7SjQE5ut1eMI8COXLkyKVLl1RV5TdLTEzMkSNHoFclSdI0Tfg4aF3XOW1YooWHhYhSUlKio6MDvdqtW7fq1asHepo9w3aW/7RtK20SExNjYmI4O8WeXy3LMufw8g8LU6ZMmeLFi2Me+Q0VCvPISkeEHHEjBJMjKwffYjPbc6SmLQNqcqug+vCru7LLkLA+qTCIKSrb6guVsVcZi/srSZIwlHAwwu6Eh46yU47M1DK1yFGgXmzPkU945Wj06NHffPON74s+EcA0ze3bt9s9iszkcrnmzZs3cuRIYUvMo4wNRtgdrnV+hU6OfL8iIyBHqm/Z7ns3LMwlZ6VvmqYsy/w6V2ys/CC+v8Hnj4RfC8v3poTfRtjAV0mPPxh+HLZTwsPL7yhb5cgXHznyKxRyZH0wIZUjSZLmzJkzYsQI4UjALs2aNSPMI38NQmce4VoXqEHW5Ij9PDJypKYNzTrjD5e/S+x9AL+NcJek1Lu4Vo4dvyNhDVm2v0EGodTDwt8p4akpPDKUnXKUbpohR7c7EswjThsIfZhHGQtCuNZxBxwxOZJSF3YRkCN8YwkAAAAA7IGVKAAAAADYAytRAAAAALAHVqIAAAAAYA+sRCFEWfnzcwAAAAhrWIkCAAAAgD2wEgUAAAAAe2AlCgAAAAD2wEoUAAAAAOyhulwu3z90XVcUhb9BUlISv4EwCKtPGnwbInK73R6PhxOEVaniRBCWqCJr5XeTkpL4O67rurAWgsU22SRH165dIyKXy4Uc+RUKOfIJrxxZqcIM9jJNMzk5Oe2vJ78wj/zCtS6QSMoRi+ByuSIgR2psbGzazlRVZYVKOQNKu0k6kiRpmibcbU3TVFXlBGEjFpaokmU5Ojo60KtZeVbpuh4TE8PZKV/5L87h5R8WX0fZJEdsq9jYWOQoY4PBPApEeEDAdpIkOZ3OuLg4zKNb24TIPCJc6wK3yYIcOZ1OWZbj4uI4vVCY5Eh1Op3s/1gChGeeoii+TQL1pygKJwfs6TwOh4MTxDAM0zSt7DlnML7dFt4d4XRkJQiLoKoqZzC6rgvr/EqSpKoq/9Blnxyx3p1OJ3IUqCPbc+QTXjnC08HCgqIo/NObMI8CwLUukEjKEcuOw+GIgBzh3gAAAAAA2AMrUQhReLI9AABAxMNKFAAAAADsgZUoAAAAANgDK1EAAAAAsAdWogAAAABgD6xEAQAAAMAeWIkCAAAAgD1UX+E70zTZk1T5GxiGwa+Vx17lPwFVGIQ9AZU/EuFgWBD+w4CEdf/YaIXFG1gbTjR2bPk7xSLwD132yRErZaHrOnIUqCPbc5RutByhliP+aCEUCE9vK20wjwJ1hGtdoCDhkiPfr8gIyNF/KigIqwKwofDbsCD8AiesFhY/iLCNLxr/Jf7ZwF7lB2HnpXAw/KPHiiXwgwiLXgh78cWJmBz5jglydGuEEMkRheE8gtBn5WzBPOKEwrUuUDT+S+GSIyujFfbiC2VvjlTfbvjeCgRzdrII/D33teE0YIMWHmLhVMmUGrLCAVNqnoRHRphLfoNslSP2Q3buEnIUuA2nAWEeBWjAGQOECGEeCfMoAFzrMjYYCqscsZ9HRo7S/yjIa3SmXOKtBxEeXBJ9EifMENvcypCsfDSQxccnFMaQ4Rz5PiJBju50kOw5jyD0YR6lE4LzCDlKBznKQBA1+A4A7oSqVatqmkZEiqLwW0qSJGxDRAkJCfwGVoI4HA7hYFRVPK2EgxEGkSRJOBiLH1LHxsbyOxIemSzLEQAARBj8NRUAAAAA2AMrUQAAAACwB1aiAHeK8fub7YvUnPKVZvdA/DP/2TWne7XcjpJP7PPe5qbevWPKFev57t93+GlI2tHlw1uUjI5utvB34872BOHD5XJNmzZt48aNdg8EADIHVqIQobw/bPzoB3vXgHKeWt2G9m9aPItnmXFh34Z9F8RLNylf8/GrpraLy0AXSulWQ4Z2qhZ/h784pFYduGjJYzXw1+xAREQul2vq1KlFihRZunRpp06d7B4OAGQOrEQhEnkvf7No7ONrjt3uvb5MFldz0NQnmhXMyllmJJ3ZOmPU7F1/WbuJKKkOJQPLSblY+6cn96wYdftb3i5JUVV8UZ6IiPRf1zzWqlwuRUmo2rH/gL69urRp1LjTk0sPXzZvfbV/7y4tm7QbvuiLy5HxEH/fGvSFF15ISkqaPn263SMCgEyDlSiECv3E2sfvuyu6xtNL5/VtWbd8kRINRm04vG1yz7aNKhQuXv/xD8+xtVXiV//XrW7dVt26t65Xr8crX18nIjIv7p7Zp/uAEUM7N6zTddHR5N/eHT/y5X1/7pnZoWX7KZ8lESX/sHJ4szoN27RuVL/jczv+Msj4a+eMB8rnLPnY6ndHNSufP1fxTm+e/G91iFs2IaLr3y3pV6d06cp1GneetPalLrkSqnaf89mRTZPalrnxCXLK14t71czjuGvYJx669r9XelbP7bj7qc+9dO2L14bcVyS67Kjlbw5v27BGuVKVOk7bddEkz5E3+9TKE9NixsrJ3ZrWKlOkTKspnxxe+2SXVvfeXbhMy8m7LpkBBnPtf6/0rJE7psWMVVN7NK9TrnCxOkPfPakReQ/MHzph3bGfVw5r02bQsl/8FrwwrxyY07lKyTJV6zV9eN7XyVFSgF3WL+2e0aKoQ46r0OWlAy793NaJzYs6CzQcs2H/+0+1KOGMbr/sH5OIzCtfvNyvVesuvbq3qN9i5Hu/eomMv3fN6Fy/XvO2ze5tMmjp90n/7f7SnrldKuV0Vpl8RCP95zUjGt2lxnR97zpp3y8fVL9gbKuXNs/rVqt4Qp5q43YnZtbJFQmUu3st3PZG/yJqoQ5Tlr69as2GHZ8u6/bXrBbNn9l71Uz36orVG7a8WH3/k13H77hu97iD43K5pkyZUqRIkTlz5iQlJXk8nsKFCw8YMMDucQFApsHnXhAqlLIPLZi+f2P79QfKHNr5Zd7TL7eo0vehpNWHtk9PODGvSc1Jrw+4f1YtVT+9450vq8365c028v4xFR6Ys3XAuh45Tr8zZVn81J8WNZcPz+6x+g93qX6vv/Lj/ua/Prt1fY8YIv37Wf0e+7bL5/snVk7ZMrDCgLE1f1zVufWzi0fvKTNl4U/rd35z/6zum/LGpL31pn+/4JZNHvhr0bCx3zbfeXRO/dgLGwbVm6e3fmfF+Bax1Gzh40GOggAAFNNJREFUL7urbyUiiq41fPm0zz8eRkSUs/6o5c8e3PYMEVHOe0csnnd6f9NVm6SDmw+Wls6+1anmwCkNf3qt5dA3J3y6sd/676cc2D096ptn6zboPGTM9v2fLFC/GF+7xZRVA5uOLiX7G0znUcsnHczfd+23zx74bGrOc290rDJufs+ur7Vo/Nz6Zw4XnVt9yY5p1fzPbs8XswfN+ueRQz+OrSCdeqNL3UtGr4C7PGnFs/sqzKk4emSjBIU6TBzZ4tvTz87rUlZ58KXjnzU4RERESbuf7b3A8erRDe1znnqpaf11h6b0yHtgTO/FcYuObuiScOLF+2oNfKneoUmVfY9wkvI2fXrp0/uLzSMiUsr3ennu1ztanyYitcrAJbO//rTLK6t77v7fZzsGjU/MmeYpVXv27CEiVqKD/2g6TdMUReG0uX49fFdnDkearEbf3fvl6R+UGzzm1b5fPVtZ+e+rUWXKlZT+OXHiktE2LizvOCQnJ0+ePHnevHmGYbjdbvZDVVX79u3LTgYiSkxMzJEjByeIruvCJ3Lrus5/aBp7PLjwmWhutzsqKuDnBFaeMS58arrFB5UnJiZGR0dzdipT5hEr8Ch8Ohty5FfwOfr5558j5snKqtd78wNMXdeFj1rVdT3tJrfSNI1f9ImdVfxeWC5Zyjm8Xi9nMFZqIbA2/I6sTFpd1zVN47RhtV/5g9E0jV/xliI6Rw6HgxRFcdRu17qATFSsTq1ClKtx03wSUam6tfPNOnNOp1qqUnnCniPXHNFEesG78nuP/H3VoJwJxYslz5s1uVH8k10nbqhNRJT2D0SN0zu3/ljugU4VnESO+o2rX52y6zutcxNVUVTJUaNx/Zxxzhe2tfrvuPxs4r3v5P+3d//hUVTnHsDf2Z1dyAaSkIBVjDWRWxGFB7hXpFAggBZE8FEkYLFWkaoIKj8u0suPB0RFLEqNiIJUgcdC5IJKC0j4cbEaFRGhKKLWe4HmtkTqJSTZANlkd2fm3D8Ouyy7M+cM2SWThO/nDx/DnDnnnfPuzJ79Mft++PWVw1/u1YaIfjRs1IA2GzWVX4Td6rmPuBX3uWuLyx3z0bdbdbuuH3JbvoeIrrr9jn+b+vJH32m39HS53e7sfsN+mqEQde3d3ZemDujdloh6/LS75+2/f69TPpnH73K73TkDRvwsSyHq2KdPnn/vP04zypFdmfSyjz76vtvdIzt7iSjvrpG9ph0SzNKAkfcUzHz2T/teGPAz76n3d4bvnNvJTUSkRo44fLBkx4l/fbp/JhHlP77rH1O83vC293bWD/z9rTkKUX6/vpc/+eEnJ2Z3vSI2MDV2wmIvxm63K5jXb8iPvVdNWLuRiCj68Bo0aJDkyGzLyclJVVdOU9oPGd5bmfReydFZXa89b0VQX7Zpy4E2fWfe3LFZLkOJaOvWraWlpW63O/ZaFA6HFy1atGjRIgcDA2gievXqFQ6HW8CaQY19FrD5E9bS39yWvpAi2Q9323yxpaqq+CUFf5EkXiCS8He57dS5IiKXyyUOxk4njDFVVaVFIFp2jhRPWppKxBcoisfrifRy9vFrnNy//sWVu6vS22cE9p+9o1ppd9eybafnPTG7IH9W3ynLVj1zW+55g1SdrNLK331i1D4vETtTkX95N+Psiem6Irfj2QMIfzil820rjhtErW5+5dsnE3cxavw11C6nHQ9UbZeTqfyf+NgTKJlZGQoRkZKRmcFqqk+dDaN1Wmv+z27VE/m5ekVV3Yy/ULKOP7IjqaqqSF8VEBERq6muUdpl88NQ2uZkexXBLCmX3T528PQ563Yv7Ntj++b6W5+7Mm5dw6qrarwZGV4ehddLRPWVlbXhb4vG3vmmQhQ8md6po1pX/trQG6aWhojcV03a/u2LPQQBejvmXmayeOJHJ337hIjC4bD4PErhotZxSlbulW2NQ2XHdOIrUaN8w5ThB1pX/c+BI23HvPanidc328+9CgsLV69ePW/evLVr13q93lAoRERpaWkzZsyYP38+b1NTU5OZmSnoxM4be5qmiYtE2LzWBQIBQZGIVD0fGYYhPQX8fn96errgoFJyHvF+pNOCHJlqtBw1izXDuWOwX6JKetjSdxDt1MuStpH2w0uWi9sokXqS0lHsVAm72ANdmjk6z6lNU26fy5YdLC7sYBx+4aPiEv7PIZY35qVd98757JWHxoyf169s1ZDYQbLb53g637184+SrY1c4jIgUtzvyT56BS/4WWHL2D+Po7xJ2YRV/y6Ca6hq+CNRr/KeirzNdLhfTNP6CUK+vCzGLqwurrvIb1MZFzF/lp8wu9u49t4g/aGffREpGVgar8Z9ilK0Qq632h1iOYBTKGT52yNTpb3/ym/IS14iiDvERK+2yM4PfnTzDKPp909Y5OW0yBs99e8XPvTENd5x65NwfZ1wupmv8jWtWX18f84rd6qoZewYl//BuQRgRGSz6IsSVO2bJ1ud6qRT469JRBf3G1H26cVxec31bND8/f82aNc8888zs2bPXrVunqmpdXd3ixYunTZsWLcfVkq51eD4StxE0QI5MNZccNdcrFLRITNc0XdfPrUsiyzsiYrpuEKuvqgr4fnR5hkLB/92995iu6zqRtv/pIb9+t5Kpl/W+945uLk1jpKSl+1hlRaVBRK684SO7f7t+zcEzRESBw9t2facREdM0jem66fuIZrso2X0Lrj+2fdPBABGrfL/ks/po65yrclsd+cuXpxgZFTu27g1GPqYwdJ1p2rlvCoS/2PTHoyEi7e+bN/2lQ/+CziqRoWlGzMcasR9xME3XrePXz9+RmM4ny+vzuf0nK3UiotMlD+e1v3H+56Fzh+a+pn//joc2bz4aJtK/L9n5FemazixHISVr6NhbQyXLZ2/x3TGsXeQaous6X3t7uo8YfsWnb67+JkBE2j/f/+PHlZ6+o0aoO/6w+bhGRHrFnm17KuI/G2qV++MOx7/88oRB7NTeraUVxtnYmRb3ACCmhTUWDjfRn2R1HqsuLz/tuvqaqxOW774u4+7vX1OyfP1hyWdmTV5eXt5bb71VVlZWWFhIRIFA4KWXXnI6KABIGaxEoamo3bfi0bkb/3l6+4IHl+3lt5SEShdPWHGAv/lXv+u5h14/mDly5n/8ZPu93W8cdO+a9mNGXf7Vyqc2HKGfDLszuHzMmPvH/eKBzf9SNG+Yj9zXjZow9PjiESPuW7DjhOu6yWte6/Pxr3p26d6z56Dpn1G22/hh58KJS/YEvn5jymO/LUn83XR34i7k7vLYikVdSgq7drtp0MT9+QNyo2dPm2EzF/Q/MKlb1z5Dpnwz6P6bTm+eP+GNHZsXjF/4X7XlG2ZNePkTPyMiSut3Y2D+0N49rhu4xDV55fzBrSs+WPzr3+4KHNsw+/E132hERKxyy9NT3vpvnYjI+GHjk9PXH9YTg3FV/Pn5B57dGSh/e87ksztSeM/Sx5bsrmGtCx54OHfrI7eMnrTyUKuehWOu/eHQkfqYQ/P2nb3yN21///PruvcZMqdy2C87V7wz6+Hln9eaHTIREWXccs+I0JaPOxTezG87qD+w8vFpq/9a92nRQzPfOdyqYMH6hXnvjrzh2m49et/zn2cuy3Bl3va7DVONFwZd37Vnz5tGv/FDZkb8i2BPn8kLC0881atL78Hj3uv+q6Hqhy88WFS6Z9Ujc945fnr7ggeeWH2gjoi0r/8wZdKyA4H9r0ycVvwNVqOJWMXOkr3UdfiwTiZvJHvT0lQK1AZaxg855eXlrVu3rqysbPTo0UVFRX6/3+mIACBFWIRhGOFwmMlUV1eLG4TDYf5lCyuGYYRCIXEn/AYgaTC1tbXigfjXbAVtNE0TD2SnE8ZYdXV1MBgUD8S/OCwQCoWkU3cJ5qhpCu2e3ilz7MZ62zuE983q0mbU+sBFjCmRcergkvFTN1U0v/m1kJLzqKCg4NVXX01pXI0l9OdHc72dZ37OrwJ1R9bek9/mhqm7qgyTrbWf/HvnVtc8/kHjPuRSZODAgUuXLrXaWlZW9sUXX7AWd63D85HVQMiRqRaTo2b7bXYAZ2lhzbD4bN8U/zKA1qhv7AW/2rGv2/xFg9pfIl+ZbNn0o+ufeOyptcc1ZduzEyqyQ/7vjx5395i+44OJfdspcVvbs2D1sXJt+KotTw9Mczrw1MvLy3M6BABIGaxEoalL4b2KPp/P6/VaNbDzS1vhcFhVja/WzH1xxYby2voF457PfmXG4Jj7eJjpT9+Fvlz16IzisrraRQ8WXfXa1P7tavz+6C0XplJyP6mn213jGJPcNim7n9TO9DZaji5l7k53F227u6hBWwEAmiysRAEulLf7fc+/ed/zb17AHj3Gv/7x+NcvXkgAAADNEu5YAgAAAABnYCUKAAAAAM5QWaQMVPQmJvEO0jY2GyTfhiIVEZIcKPpfabNk+mGMKYrSCFNnv58kB0KOBA2QI0GzZPpJSY6gWcB5JG6WTD+41iUzECFHDRpI0EaN/jQ2Y4zfsSGNWFxdlBflE99pwctYiUexU7pQHAzvhAkruduslEqy+vV8LEFvuq7zOzYEnfD5l04dcpTYCXJk1QY5Mh1FHC00BeJHAofzSDAWrnUXGgxyZOVi5+hcTXA+++LbdSlSYF0wEiVdn5Qn0uVySYulioPhWZR2Ig6G7N1SzQcS1523U5hLXEMWObKCHJk2QI6sOhHEAE2E2+3GeZSo6ZxHuNZZQY5MGwhyFD9TSV6jU3KJt9+JuCXfKn7/Q5zm6O52QrLzRksjz09TiAE5avzdL7STSzNH0PThPIrTBM8j5CgOctSATnDHEgAAAAA4AytRAAAAAHAGVqIAAAAA4AysRAEAAADAGViJAgAAAIAzsBIFAAAAAGdgJQoAAAAAzsBKFAAAAACcgZUoAAAAADhD9fv90T90XZfWuQoEAuIGdjqRtokWhhL3EwwGQ6GQ1VZe4VTcSaraBAIB8UEZhiGtzZCSqSPkyAJyZOVSy5G0cjQ4jjFWV1cX+/RkCueRKVzrrCBHVsEk30kyOVKzsrKijXRdF1dT5aK7mNI0TVqfVNM0j8cj6MQwDMaYnenz+XyCgXgZWUEw/DlJMJCdTjifz+f1egUDSQvRhsNhaQ1Z5KhhnXDIkalLLUd26kqDsxRFSUtLE58jHM4jU7jWmUKOrDibI3w6DwAAAADOwEoUAAAAAJyBlSgAAAAAOAMrUQAAAABwBlaiAAAAAOAMrEQBAAAAwBlYiQIAAACAM7ASBQAAAABnxP/eKWNM+nOsAoyx5OK5sE7ELflW8eFIx+K725kWO/OW5PSmpBPkSAw5Mt3awnJ0+PDh0tLSZHqAi4pXV8J5FKepnUfJd4IciV0iOVI1TYu2s1MEzzCM6C6mNE2THjYvHiBowKsUSI9fHAyvuMVLZgkiEQ/B61ORjepe4oPSdV1adMHOtCBHppEgR1bBIEeJsrKyiouLi4uLpTEn/xyQKk0nmEaLpFWrVtLHFc4jq7FwrWtAMMiRlYudIzVaeYlvlhbLUhRFWlpUXBUq2kbQgD8UkgzG5XJJC9HyOKWPGGn5V16VSxywtHKXdFqQI3EwyFEc5MjUxo0b7VTA8/v9SVbA423EA9msUlhbW5uenm61lT/5paRetjRHfr8/PT1dUNbPTpVC6bTwZ1CcR1bBNIXzCNc6cTDIURxBjs6rWCqdOzttlAhBuCR7X5pvlQYjfcVgZyxxg2gPSQYsnRY7wdiJxE4b5MiqAXLU4LHEDZAjcZzIkVU/0h6QI6sekKNEyFHD2lzsHOGOJQAAAABwBlaiAAAAAOAMrEQBAAAAwBlYiQIAAACAM7ASBQAAAABnYCUKAAAAAM7AShQAAAAAnIGVKAAAAAA4Q42rvGSnwKi0cqudBtKBkm/Di5dIgyHhEdmPVtqPoihJTl3sWMm0QY6sGiBHiZCjBg+EHInHEg8kHsVmG+TIqgFylAg5avBASeZIjS02quu6tCNd15OsT8oYs1Of1M5RaZomrSEr7sRmG3EhWoqUbRW0sVMBj9eHFQ+EHFm1QY5M2yBHVm2QI9M2yJFpG+TIqg1yZNoGOTJtY7kSjZYP5sNIazG73W5BxWGKFDAVR6woirgTm7WYPR6PoB/GmGEY4upePJGCgex0wntQVVUQDO9B/KgiIlVVpVOHHDWgE0KOrCFHVsEgR4mQIyvIkVUwyFEi5CgWvicKAAAAAM7AShQAAAAAnIGVKAAAAAA4AytRAAAAAHAGVqIAAAAA4AysRAEAAADAGViJAgAAAIAzsBIFAAAAAGfEr0Slv8UvluTuF9qJuCXfaudH/wUN+O52QhIPFBtSkpCjOMhRkp0gR42/+4V2ghw1/u4X2gly1Pi7X2gnyFHj726nE5WXrqKYQkzSVEV3McWrC9iphSUdRZoncTD8WKQVqChSv0uw1U4P4mB4J+KZkRa9RY4EW5Ejq1GQozjIkWArcmQ1CnIUBzkSbEWOrEYxnRk12jWLlKgSdEQ2XhBIHxB25kU6v7G9NThUijyepNGKB4p2JQ5G2omdqUOOBJ0gR3GQI0ED5MiqE+QoDnIkaIAcWXWCHMUR5EiN1gDlm6VlW10ul7gNY0xan5TJ6sMqiiJtIw0mmgPpqxNxJ/x1ibgTl8slnRlpDVnDMKRTJ442GgxyZBoJctSAYJAjQT/IkSnkyHQg5MiqH+TI1KWTI9yxBAAAAADOwEoUAAAAAJyBlSgAAAAAOAMrUQAAAABwBlaiAAAAAOAMrEQBAAAAwBlYiQIAAACAM7ASBQAAAABnYCUKAAAAAM7AShQAAAAAnKEGAgH+f4wxXdfFBZ2IKBgMRndJZKcT3iYcDgsa2KkcRUR1dXWCrbzIqbjolq7rJKvcxcutiotuBYNBl8ulaZpgICXCqo2maXamDjlKDAY5Mm2AHFkFgxyZBoMcmTZAjqyCQY5Mg0GOTBsIcqT6fL7YjlRVFYRLRKFQKLqLKTtTo2max+MRdMIfENJHFREJgrFTQ9bmo0paQzYUCrVu3drr9QoGkj40w+GwqqrSZCNHDeiEkCMh5Mg0GOQoEXIkgByZBoMcJUKOYuHTeQAAAABwBlaiAAAAAOAMrEQBAAAAwBlYiQIAAACAM7ASBQAAAABn/D8S8udR6bsGYgAAAABJRU5ErkJggg==;" vertex="1" parent="1">
          <mxGeometry x="90" y="30" width="899" height="626" as="geometry" />
        </mxCell>
      </root>
    </mxGraphModel>
  </diagram>
</mxfile>
